<svg width="391" height="358" viewBox="0 0 391 358" fill="none" xmlns="http://www.w3.org/2000/svg">
<rect x="45" y="154" width="304" height="1" fill="url(#paint0_linear_201_79)"/>
<rect x="45" y="203" width="304" height="1" fill="url(#paint1_linear_201_79)"/>
<rect x="45" y="104" width="304" height="1" fill="url(#paint2_linear_201_79)"/>
<rect x="45" y="252" width="304" height="1" fill="url(#paint3_linear_201_79)"/>
<path opacity="0.24" d="M72.5 127C72.5 122.858 75.8579 119.5 80 119.5H120C124.142 119.5 127.5 122.858 127.5 127V167C127.5 171.142 124.142 174.5 120 174.5H80C75.8579 174.5 72.5 171.142 72.5 167V127Z" fill="url(#paint4_linear_201_79)" stroke="url(#paint5_linear_201_79)"/>
<path d="M136.5 127C136.5 122.858 139.858 119.5 144 119.5H184C188.142 119.5 191.5 122.858 191.5 127V167C191.5 171.142 188.142 174.5 184 174.5H144C139.858 174.5 136.5 171.142 136.5 167V127Z" fill="url(#paint6_linear_201_79)" stroke="url(#paint7_linear_201_79)"/>
<path opacity="0.48" d="M162.5 146.5C162.5 146.776 162.276 147 162 147C161.724 147 161.5 146.776 161.5 146.5C161.5 146.224 161.724 146 162 146C162.276 146 162.5 146.224 162.5 146.5Z" fill="#E5E7EB" stroke="#E5E7EB"/>
<path opacity="0.48" d="M166.5 146.5C166.5 146.776 166.276 147 166 147C165.724 147 165.5 146.776 165.5 146.5C165.5 146.224 165.724 146 166 146C166.276 146 166.5 146.224 166.5 146.5Z" fill="#E5E7EB" stroke="#E5E7EB"/>
<path d="M158 153V141" stroke="#E5E7EB" stroke-width="2" stroke-linecap="round" stroke-linejoin="round"/>
<path d="M170 153V141" stroke="#E5E7EB" stroke-width="2" stroke-linecap="round" stroke-linejoin="round"/>
<path opacity="0.24" d="M200.5 127C200.5 122.858 203.858 119.5 208 119.5H248C252.142 119.5 255.5 122.858 255.5 127V167C255.5 171.142 252.142 174.5 248 174.5H208C203.858 174.5 200.5 171.142 200.5 167V127Z" fill="url(#paint8_linear_201_79)" stroke="url(#paint9_linear_201_79)"/>
<path opacity="0.24" d="M264.5 127C264.5 122.858 267.858 119.5 272 119.5H312C316.142 119.5 319.5 122.858 319.5 127V167C319.5 171.142 316.142 174.5 312 174.5H272C267.858 174.5 264.5 171.142 264.5 167V127Z" fill="url(#paint10_linear_201_79)" stroke="url(#paint11_linear_201_79)"/>
<path opacity="0.24" d="M72.5 191C72.5 186.858 75.8579 183.5 80 183.5H120C124.142 183.5 127.5 186.858 127.5 191V231C127.5 235.142 124.142 238.5 120 238.5H80C75.8579 238.5 72.5 235.142 72.5 231V191Z" fill="url(#paint12_linear_201_79)" stroke="url(#paint13_linear_201_79)"/>
<path opacity="0.24" d="M136.5 191C136.5 186.858 139.858 183.5 144 183.5H184C188.142 183.5 191.5 186.858 191.5 191V231C191.5 235.142 188.142 238.5 184 238.5H144C139.858 238.5 136.5 235.142 136.5 231V191Z" fill="url(#paint14_linear_201_79)" stroke="url(#paint15_linear_201_79)"/>
<path d="M200.5 191C200.5 186.858 203.858 183.5 208 183.5H248C252.142 183.5 255.5 186.858 255.5 191V231C255.5 235.142 252.142 238.5 248 238.5H208C203.858 238.5 200.5 235.142 200.5 231V191Z" fill="url(#paint16_linear_201_79)" stroke="url(#paint17_linear_201_79)"/>
<path opacity="0.48" d="M226.5 205C226.5 205.276 226.276 205.5 226 205.5C225.724 205.5 225.5 205.276 225.5 205C225.5 204.724 225.724 204.5 226 204.5C226.276 204.5 226.5 204.724 226.5 205Z" fill="#E5E7EB" stroke="#E5E7EB"/>
<path opacity="0.48" d="M230.5 217C230.5 217.276 230.276 217.5 230 217.5C229.724 217.5 229.5 217.276 229.5 217C229.5 216.724 229.724 216.5 230 216.5C230.276 216.5 230.5 216.724 230.5 217Z" fill="#E5E7EB" stroke="#E5E7EB"/>
<path opacity="0.48" d="M226.5 217C226.5 217.276 226.276 217.5 226 217.5C225.724 217.5 225.5 217.276 225.5 217C225.5 216.724 225.724 216.5 226 216.5C226.276 216.5 226.5 216.724 226.5 217Z" fill="#E5E7EB" stroke="#E5E7EB"/>
<path opacity="0.48" d="M230.5 205C230.5 205.276 230.276 205.5 230 205.5C229.724 205.5 229.5 205.276 229.5 205C229.5 204.724 229.724 204.5 230 204.5C230.276 204.5 230.5 204.724 230.5 205Z" fill="#E5E7EB" stroke="#E5E7EB"/>
<path d="M222 217V205" stroke="#E5E7EB" stroke-width="2" stroke-linecap="round" stroke-linejoin="round"/>
<path d="M234 217V205" stroke="#E5E7EB" stroke-width="2" stroke-linecap="round" stroke-linejoin="round"/>
<path opacity="0.24" d="M264.5 191C264.5 186.858 267.858 183.5 272 183.5H312C316.142 183.5 319.5 186.858 319.5 191V231C319.5 235.142 316.142 238.5 312 238.5H272C267.858 238.5 264.5 235.142 264.5 231V191Z" fill="url(#paint18_linear_201_79)" stroke="url(#paint19_linear_201_79)"/>
<g filter="url(#filter0_f_201_79)">
<path fill-rule="evenodd" clip-rule="evenodd" d="M93 93L298 231.064L181.506 265L93 93Z" fill="url(#paint20_linear_201_79)"/>
</g>
<path d="M164 119V99C164 92.3726 158.627 87 152 87H84" stroke="url(#paint21_linear_201_79)" stroke-width="1.5"/>
<path d="M228 239V259C228 265.627 233.373 271 240 271H308" stroke="url(#paint22_linear_201_79)" stroke-width="1.5"/>
<defs>
<filter id="filter0_f_201_79" x="0.578415" y="0.578415" width="389.843" height="356.843" filterUnits="userSpaceOnUse" color-interpolation-filters="sRGB">
<feFlood flood-opacity="0" result="BackgroundImageFix"/>
<feBlend mode="normal" in="SourceGraphic" in2="BackgroundImageFix" result="shape"/>
<feGaussianBlur stdDeviation="46.2108" result="effect1_foregroundBlur_201_79"/>
</filter>
<linearGradient id="paint0_linear_201_79" x1="45" y1="154.5" x2="349" y2="154.5" gradientUnits="userSpaceOnUse">
<stop stop-color="#838AA7" stop-opacity="0"/>
<stop offset="0.49" stop-color="#838AA7" stop-opacity="0.24"/>
<stop offset="0.99" stop-color="#838AA7" stop-opacity="0"/>
</linearGradient>
<linearGradient id="paint1_linear_201_79" x1="45" y1="203.5" x2="349" y2="203.5" gradientUnits="userSpaceOnUse">
<stop stop-color="#838AA7" stop-opacity="0"/>
<stop offset="0.49" stop-color="#838AA7" stop-opacity="0.24"/>
<stop offset="0.99" stop-color="#838AA7" stop-opacity="0"/>
</linearGradient>
<linearGradient id="paint2_linear_201_79" x1="45" y1="104.5" x2="349" y2="104.5" gradientUnits="userSpaceOnUse">
<stop stop-color="#838AA7" stop-opacity="0"/>
<stop offset="0.49" stop-color="#838AA7" stop-opacity="0.24"/>
<stop offset="0.99" stop-color="#838AA7" stop-opacity="0"/>
</linearGradient>
<linearGradient id="paint3_linear_201_79" x1="45" y1="252.5" x2="349" y2="252.5" gradientUnits="userSpaceOnUse">
<stop stop-color="#838AA7" stop-opacity="0"/>
<stop offset="0.49" stop-color="#838AA7" stop-opacity="0.24"/>
<stop offset="0.99" stop-color="#838AA7" stop-opacity="0"/>
</linearGradient>
<linearGradient id="paint4_linear_201_79" x1="102.029" y1="175" x2="100.141" y2="116.422" gradientUnits="userSpaceOnUse">
<stop stop-color="#1F2937" stop-opacity="0.64"/>
<stop offset="1" stop-color="#1F2937"/>
</linearGradient>
<linearGradient id="paint5_linear_201_79" x1="72" y1="119" x2="133.062" y2="125.208" gradientUnits="userSpaceOnUse">
<stop stop-color="#1F2937"/>
<stop offset="0.5" stop-color="#4B5563"/>
<stop offset="0.995" stop-color="#1F2937"/>
</linearGradient>
<linearGradient id="paint6_linear_201_79" x1="166.029" y1="175" x2="164.141" y2="116.422" gradientUnits="userSpaceOnUse">
<stop stop-color="#1F2937" stop-opacity="0.64"/>
<stop offset="1" stop-color="#1F2937"/>
</linearGradient>
<linearGradient id="paint7_linear_201_79" x1="136" y1="119" x2="197.062" y2="125.208" gradientUnits="userSpaceOnUse">
<stop stop-color="#1F2937"/>
<stop offset="0.5" stop-color="#4B5563"/>
<stop offset="0.995" stop-color="#1F2937"/>
</linearGradient>
<linearGradient id="paint8_linear_201_79" x1="230.029" y1="175" x2="228.141" y2="116.422" gradientUnits="userSpaceOnUse">
<stop stop-color="#1F2937" stop-opacity="0.64"/>
<stop offset="1" stop-color="#1F2937"/>
</linearGradient>
<linearGradient id="paint9_linear_201_79" x1="200" y1="119" x2="261.062" y2="125.208" gradientUnits="userSpaceOnUse">
<stop stop-color="#1F2937"/>
<stop offset="0.5" stop-color="#4B5563"/>
<stop offset="0.995" stop-color="#1F2937"/>
</linearGradient>
<linearGradient id="paint10_linear_201_79" x1="294.029" y1="175" x2="292.141" y2="116.422" gradientUnits="userSpaceOnUse">
<stop stop-color="#1F2937" stop-opacity="0.64"/>
<stop offset="1" stop-color="#1F2937"/>
</linearGradient>
<linearGradient id="paint11_linear_201_79" x1="264" y1="119" x2="325.062" y2="125.208" gradientUnits="userSpaceOnUse">
<stop stop-color="#1F2937"/>
<stop offset="0.5" stop-color="#4B5563"/>
<stop offset="0.995" stop-color="#1F2937"/>
</linearGradient>
<linearGradient id="paint12_linear_201_79" x1="102.029" y1="239" x2="100.141" y2="180.422" gradientUnits="userSpaceOnUse">
<stop stop-color="#1F2937" stop-opacity="0.64"/>
<stop offset="1" stop-color="#1F2937"/>
</linearGradient>
<linearGradient id="paint13_linear_201_79" x1="72" y1="183" x2="133.062" y2="189.208" gradientUnits="userSpaceOnUse">
<stop stop-color="#1F2937"/>
<stop offset="0.5" stop-color="#4B5563"/>
<stop offset="0.995" stop-color="#1F2937"/>
</linearGradient>
<linearGradient id="paint14_linear_201_79" x1="166.029" y1="239" x2="164.141" y2="180.422" gradientUnits="userSpaceOnUse">
<stop stop-color="#1F2937" stop-opacity="0.64"/>
<stop offset="1" stop-color="#1F2937"/>
</linearGradient>
<linearGradient id="paint15_linear_201_79" x1="136" y1="183" x2="197.062" y2="189.208" gradientUnits="userSpaceOnUse">
<stop stop-color="#1F2937"/>
<stop offset="0.5" stop-color="#4B5563"/>
<stop offset="0.995" stop-color="#1F2937"/>
</linearGradient>
<linearGradient id="paint16_linear_201_79" x1="230.029" y1="239" x2="228.141" y2="180.422" gradientUnits="userSpaceOnUse">
<stop stop-color="#1F2937" stop-opacity="0.64"/>
<stop offset="1" stop-color="#1F2937"/>
</linearGradient>
<linearGradient id="paint17_linear_201_79" x1="200" y1="183" x2="261.062" y2="189.208" gradientUnits="userSpaceOnUse">
<stop stop-color="#1F2937"/>
<stop offset="0.5" stop-color="#4B5563"/>
<stop offset="0.995" stop-color="#1F2937"/>
</linearGradient>
<linearGradient id="paint18_linear_201_79" x1="294.029" y1="239" x2="292.141" y2="180.422" gradientUnits="userSpaceOnUse">
<stop stop-color="#1F2937" stop-opacity="0.64"/>
<stop offset="1" stop-color="#1F2937"/>
</linearGradient>
<linearGradient id="paint19_linear_201_79" x1="264" y1="183" x2="325.062" y2="189.208" gradientUnits="userSpaceOnUse">
<stop stop-color="#1F2937"/>
<stop offset="0.5" stop-color="#4B5563"/>
<stop offset="0.995" stop-color="#1F2937"/>
</linearGradient>
<linearGradient id="paint20_linear_201_79" x1="52.8952" y1="149.616" x2="111.938" y2="273.945" gradientUnits="userSpaceOnUse">
<stop stop-color="#6366F1"/>
<stop offset="0.45572" stop-color="#6366F1" stop-opacity="0.64"/>
<stop offset="1" stop-color="#6366F1" stop-opacity="0"/>
</linearGradient>
<linearGradient id="paint21_linear_201_79" x1="164" y1="119" x2="119.634" y2="71.9136" gradientUnits="userSpaceOnUse">
<stop stop-color="#838AA7" stop-opacity="0.64"/>
<stop offset="1" stop-color="#838AA7" stop-opacity="0"/>
</linearGradient>
<linearGradient id="paint22_linear_201_79" x1="228" y1="239" x2="272.366" y2="286.086" gradientUnits="userSpaceOnUse">
<stop stop-color="#838AA7" stop-opacity="0.64"/>
<stop offset="1" stop-color="#838AA7" stop-opacity="0"/>
</linearGradient>
</defs>
</svg>
