<svg width="32" height="32" viewBox="0 0 32 32" fill="none" xmlns="http://www.w3.org/2000/svg">
<circle cx="16" cy="16" r="16" fill="#D8D8D8" fill-opacity="0.01"/>
<mask id="mask0_201_51" style="mask-type:luminance" maskUnits="userSpaceOnUse" x="0" y="0" width="32" height="32">
<circle cx="16" cy="16" r="16" fill="white"/>
</mask>
<g mask="url(#mask0_201_51)">
<path d="M25.4593 10.4666C26.1855 10.4654 26.9046 10.6076 27.5755 10.8853C28.2464 11.1629 28.8559 11.5704 29.3689 12.0844L27.7491 10.4646L19.9019 2.61956C19.1281 1.84616 18.1423 1.31952 17.0693 1.1062C15.9962 0.892881 14.884 1.00246 13.8732 1.42108C12.8624 1.8397 11.9983 2.54857 11.3903 3.45811C10.7823 4.36764 10.4575 5.43704 10.457 6.53109V10.4646L25.4593 10.4666Z" fill="url(#paint0_linear_201_51)"/>
<path d="M10.4626 6.53357C10.4618 5.80751 10.6043 5.08844 10.8819 4.41756C11.1595 3.74668 11.5668 3.13719 12.0804 2.62402L10.4606 4.24384L2.61955 12.0869C1.84615 12.8608 1.31952 13.8465 1.1062 14.9196C0.892881 15.9926 1.00246 17.1049 1.42108 18.1157C1.8397 19.1265 2.54856 19.9905 3.45809 20.5986C4.36764 21.2067 5.43704 21.5314 6.53109 21.5318H10.4646L10.4626 6.53357Z" fill="#6366F1"/>
<path d="M21.528 25.4652C21.5292 26.1913 21.3871 26.9104 21.1093 27.5813C20.8317 28.2523 20.4242 28.8618 19.9102 29.3747L21.53 27.7549L29.3771 19.9078C30.1506 19.1338 30.6772 18.1479 30.8905 17.0746C31.1037 16.0014 30.9939 14.889 30.5752 13.8781C30.1562 12.8672 29.4471 12.0032 28.5372 11.3953C27.6273 10.7874 26.5577 10.463 25.4636 10.4629H21.53L21.528 25.4652Z" fill="#6366F1"/>
<path d="M6.52865 21.5319C5.80287 21.5329 5.08402 21.3905 4.41343 21.1127C3.74285 20.8352 3.13375 20.4278 2.62109 19.9141L4.24089 21.5339L12.086 29.381C12.8599 30.1545 13.8459 30.6812 14.9191 30.8944C15.9924 31.1076 17.1048 30.998 18.1157 30.579C19.1265 30.1601 19.9906 29.451 20.5984 28.5411C21.2064 27.6314 21.5307 26.5617 21.5309 25.4674V21.5319H6.52865Z" fill="url(#paint1_linear_201_51)"/>
</g>
<defs>
<linearGradient id="paint0_linear_201_51" x1="10" y1="11" x2="29" y2="11" gradientUnits="userSpaceOnUse">
<stop stop-color="#6366F1"/>
<stop offset="1" stop-color="#6366F1" stop-opacity="0.32"/>
</linearGradient>
<linearGradient id="paint1_linear_201_51" x1="2.16411" y1="29.9158" x2="21.1621" y2="29.9158" gradientUnits="userSpaceOnUse">
<stop stop-color="#6366F1" stop-opacity="0.32"/>
<stop offset="1" stop-color="#6366F1"/>
</linearGradient>
</defs>
</svg>
