<svg width="110" height="36" viewBox="0 0 110 36" fill="none" xmlns="http://www.w3.org/2000/svg">
<path fill-rule="evenodd" clip-rule="evenodd" d="M10.996 11.9727L6.72329 16.2437L4.23682 13.7589L10.996 6.99976L17.7552 13.7607L15.2705 16.2472L10.996 11.9727ZM2.4802 15.5142L-0.00537109 17.9998L2.4802 20.4853L4.96577 17.9998L2.4802 15.5142ZM6.72286 19.7554L10.9956 24.0281L15.27 19.7537L17.7565 22.2367L17.7548 22.2384L10.9956 28.9993L4.23639 22.2419L4.23291 22.2384L6.72286 19.7554ZM19.5075 15.5161L17.022 18.0017L19.5075 20.4873L21.9931 18.0017L19.5075 15.5161ZM13.5171 17.9983L10.9959 15.4753L9.13147 17.3398L8.91601 17.5535L8.47467 17.9948L8.47119 17.9983L8.47467 18.0035L10.9959 20.523L13.5171 18L13.5189 17.9983H13.5171ZM31.2809 12.3318H25.8735V23.9944H31.4147C32.0166 24.0006 32.617 23.9335 33.2027 23.7946C33.6956 23.6801 34.1637 23.477 34.584 23.1951C34.9558 22.9394 35.2585 22.5956 35.465 22.1943C35.6781 21.7588 35.7835 21.2785 35.7725 20.7938V20.7608C35.7725 19.9847 35.5791 19.3765 35.1922 18.9363C34.7544 18.4637 34.2072 18.1057 33.5988 17.8938C33.8098 17.7835 34.0074 17.6494 34.1879 17.4941C34.3725 17.337 34.534 17.1545 34.6674 16.952C34.8106 16.7373 34.9223 16.5033 34.9993 16.257C35.0857 15.9709 35.1273 15.6731 35.1227 15.3743V15.3413C35.1299 14.9765 35.0629 14.614 34.9258 14.2759C34.7887 13.9378 34.5844 13.6311 34.3251 13.3743C33.637 12.6793 32.6223 12.3318 31.2809 12.3318ZM32.0889 16.7557C31.6722 16.9695 31.2066 17.0702 30.7388 17.0476H28.3739V14.582H30.9038C31.4483 14.582 31.8647 14.6845 32.1532 14.8895C32.2944 14.9898 32.408 15.124 32.4837 15.2798C32.5593 15.4356 32.5944 15.6079 32.5858 15.7809V15.8139C32.5992 16.0016 32.5597 16.1893 32.4719 16.3558C32.384 16.5222 32.2514 16.6607 32.0889 16.7557ZM32.7596 21.4402C32.3517 21.6672 31.8877 21.7739 31.4216 21.7477H28.3739V19.1761H31.3434C32.0107 19.1761 32.4937 19.292 32.7926 19.5236C32.9374 19.6292 33.0542 19.7687 33.1327 19.9298C33.2111 20.091 33.2489 20.2689 33.2426 20.448V20.481C33.2552 20.6695 33.217 20.8579 33.1321 21.0266C33.0471 21.1953 32.9185 21.3381 32.7596 21.4402ZM38.9946 12.3318H41.561V23.9979H38.9946V12.3318ZM47.8104 12.3318H45.4438V23.9979H47.9807V16.5819L53.6296 23.9979H55.8137V12.3318H53.2803V19.5115L47.8104 12.3318ZM63.5852 12.2478H65.9483L70.9474 23.9973H68.268L67.2011 21.3805H62.2681L61.2013 23.9973H58.5845L63.5852 12.2478ZM66.2854 19.1147L64.732 15.3303L63.1856 19.1147H66.2854ZM76.0878 12.3318H73.7212V23.9979H76.2546V16.5819L81.9035 23.9979H84.0876V12.3318H81.5542V19.5115L76.0878 12.3318ZM93.3228 24.2027C92.5049 24.2097 91.694 24.0513 90.9389 23.7371C90.2279 23.4435 89.5829 23.0106 89.0419 22.4639C88.5009 21.9172 88.0748 21.2678 87.7886 20.5538C87.4867 19.807 87.3338 19.0084 87.3386 18.2029V18.1698C87.3252 16.5821 87.9361 15.0526 89.0397 13.911C89.5827 13.3534 90.2328 12.9113 90.951 12.6113C91.7323 12.2877 92.5711 12.1263 93.4166 12.137C93.9168 12.1332 94.416 12.178 94.9075 12.2708C95.328 12.3503 95.7391 12.4731 96.1342 12.6374C96.4928 12.7883 96.8337 12.9783 97.1507 13.2038C97.4601 13.4238 97.7507 13.6691 98.0195 13.9371L96.3879 15.8206C95.971 15.436 95.5033 15.1104 94.9979 14.8528C94.5013 14.6154 93.9565 14.4964 93.4062 14.5053C92.9483 14.5004 92.4945 14.593 92.0751 14.777C91.6557 14.9609 91.2802 15.232 90.9736 15.5722C90.6696 15.9115 90.4315 16.3045 90.2716 16.7311C90.1042 17.182 90.02 17.6594 90.0232 18.1403V18.1733C90.0215 18.6535 90.1057 19.1302 90.2716 19.5808C90.4295 20.0089 90.6652 20.4042 90.9667 20.7467C91.2708 21.0911 91.6454 21.3662 92.0651 21.5532C92.4848 21.7403 92.9398 21.835 93.3993 21.8309C93.9844 21.8494 94.565 21.7234 95.0899 21.4643C95.5897 21.1919 96.0518 20.8555 96.4644 20.4635L98.0977 22.1142C97.8093 22.4272 97.4974 22.7176 97.1646 22.9829C96.8377 23.2414 96.4827 23.4623 96.1064 23.6415C95.7054 23.8302 95.283 23.9697 94.8484 24.0568C94.3462 24.1575 93.835 24.2064 93.3228 24.2027ZM109.911 12.3318H101.131L101.137 23.9979H109.998V21.7147H103.665V19.2647H109.164V16.9816H103.656V14.615H109.911V12.3318Z" fill="url(#paint0_linear_201_437)" fill-opacity="0.8"/>
<defs>
<linearGradient id="paint0_linear_201_437" x1="-0.00537109" y1="17.9995" x2="109.998" y2="17.9995" gradientUnits="userSpaceOnUse">
<stop stop-color="#6366F1"/>
<stop offset="1" stop-color="#818CF8"/>
</linearGradient>
</defs>
</svg>
