<svg width="80" height="36" viewBox="0 0 80 36" fill="none" xmlns="http://www.w3.org/2000/svg">
<path fill-rule="evenodd" clip-rule="evenodd" d="M32.5461 10.3019C33.3355 8.14259 32.8383 5.62766 31.1936 3.94985C28.5245 1.35652 22.0836 -0.229452 14.5766 2.21543C11.8715 3.0971 7.70465 4.77546 4.03383 8.81865C0.360528 12.8599 -1.45631 19.2419 1.41222 23.7914C3.50117 27.1046 7.80108 29.087 12.6768 29.0011C16.208 28.9406 20.1833 27.1732 23.7182 24.4578C23.0385 26.4827 24.1386 27.7544 25.4215 28.1114C28.2663 28.879 30.4316 25.6085 30.4316 25.6085C30.4328 25.6271 30.434 25.6455 30.4351 25.6638C30.505 26.7479 30.5371 27.2463 31.545 27.8017C33.2752 28.7491 34.4727 27.4578 35.0999 26.3848C35.2256 27.2005 35.8785 28.1021 36.7672 28.2335C38.1693 28.4523 39.4529 27.4481 40.2509 26.4936C43.0658 23.1209 44.1939 18.7136 44.1366 14.4382C44.8275 14.574 45.3409 14.5385 45.9476 14.4965C46.0337 14.4906 46.1215 14.4845 46.2121 14.4788C46.6203 14.4545 46.9412 14.4315 47.3498 14.3797C46.0828 16.7178 45.0095 19.2054 44.3354 21.8809L44.3332 21.8915C43.9591 23.6733 43.5252 25.7397 44.4622 27.253C44.8571 27.9405 45.586 28.324 46.4153 28.2674C47.4627 28.2341 48.6188 27.1143 49.1996 26.2249C49.5938 25.6931 50.3074 24.3617 50.6443 23.4145C50.7962 23.3575 50.9483 23.3038 51.1003 23.2502C51.407 23.1421 51.7129 23.0342 52.014 22.8996C52.088 22.8664 52.1478 22.8405 52.2044 22.816C52.2896 22.7792 52.3674 22.7455 52.4752 22.6947C52.0079 23.738 51.4941 24.9399 51.4673 26.1032C51.4344 26.9094 51.7388 27.7056 52.4452 28.0826C53.6125 28.6522 55.2897 27.3846 56.268 26.6451L56.2908 26.628C56.4236 27.1276 56.6122 27.6688 57.0765 27.9672C57.6268 28.3173 58.5053 28.2797 59.1689 27.8146C60.8073 26.6694 61.9491 24.9178 63.0562 23.2195C63.2615 22.9046 63.4656 22.5915 63.6715 22.2844L63.8105 22.0827C64.2249 22.0796 64.5928 22.0206 65.0045 21.8953C64.4464 22.7168 63.9331 23.589 63.5621 24.5214C63.0979 25.6572 62.8924 27.2067 63.7409 28.0785C64.1882 28.4815 64.9576 28.3367 65.4022 28.135C66.7851 27.457 67.9027 26.2693 68.935 25.1722C68.9839 25.1202 69.0326 25.0684 69.0811 25.0169L69.1586 24.9408C68.9462 25.6613 68.8163 26.6687 69.0188 27.3725C69.1318 27.7879 69.4966 28.2043 69.9072 28.2767C70.9792 28.4231 71.7832 27.7364 72.5771 27.0583C72.7158 26.9398 72.8542 26.8216 72.9937 26.7081C73.0806 26.6374 73.1744 26.5503 73.2579 26.4728C73.3271 26.4085 73.3893 26.3507 73.4347 26.3143C73.0527 27.1089 72.5801 27.928 72.1086 28.7451C71.7118 29.4328 71.3158 30.1189 70.9754 30.7879C70.9421 30.8534 70.8992 30.932 70.851 31.0201C70.6246 31.4345 70.2829 32.0601 70.2879 32.5254C70.2946 33.1636 70.6369 33.6943 71.4989 34.0122C71.661 34.0713 71.7697 34.0117 71.8137 33.8931C71.8601 32.856 72.2811 32.1063 73.0466 30.7739C73.3822 30.1626 73.7181 29.5525 74.0532 28.9436C75.2352 26.7963 76.4085 24.6647 77.5321 22.5519C77.8609 21.9215 78.2525 20.9403 77.784 20.2831C77.6083 20.1008 77.3831 20.0279 77.1117 20.0443C76.7231 20.0874 76.4027 20.358 76.1934 20.6861C75.9482 21.0346 75.7094 21.3899 75.47 21.7462C74.6635 22.9462 73.8494 24.1575 72.7557 25.1592C72.3335 25.5489 71.7704 26.0273 71.2999 25.8924C71.184 25.8559 71.1047 25.7696 71.098 25.5154C71.1348 24.2521 71.9593 23.0298 72.7053 21.9242C72.8161 21.7599 72.9252 21.5982 73.0297 21.4394C73.296 21.0856 73.5445 20.5567 73.4542 20.1336C73.3987 19.9099 73.2352 19.744 73.0271 19.6716C72.4305 19.4837 71.9455 19.8893 71.5214 20.2831C71.0355 20.8071 70.5608 21.363 70.0816 21.9242C68.966 23.2308 67.826 24.566 66.462 25.5938C66.418 25.6204 66.3737 25.649 66.329 25.6779C66.0885 25.8331 65.8362 25.996 65.5512 25.8954C65.4089 25.8358 65.3218 25.6931 65.3181 25.4851C65.3382 24.6042 65.9128 23.4274 66.5425 22.5519C66.7021 22.3304 66.8586 22.142 67.0081 21.9619C67.2868 21.6263 67.5416 21.3194 67.7492 20.8806C67.9012 20.5135 67.8719 20.1434 67.5694 19.8594C67.4014 19.7281 67.2222 19.6417 66.9206 19.7044C66.7424 19.7488 66.5667 19.8073 66.3907 19.866C65.9928 19.9985 65.5931 20.1317 65.157 20.1038C65.1992 20.0309 65.2423 19.9591 65.2851 19.8878C65.4751 19.5717 65.6603 19.2636 65.733 18.8917C65.7933 18.5025 65.7824 18.0455 65.4677 17.8053C65.1595 17.5962 64.7123 17.5768 64.3274 17.7689C63.1938 18.4358 62.7594 19.8899 62.8692 21.1544C62.2018 22.558 61.1354 23.7842 60.0074 24.8316C59.9692 24.8621 59.931 24.8933 59.8926 24.9245C59.5247 25.224 59.143 25.5346 58.6718 25.4728C58.3302 25.3873 58.2307 25.1052 58.2508 24.6663C58.3538 24.5508 58.4592 24.4338 58.5659 24.3156C59.2311 23.5779 59.9433 22.7881 60.4083 21.9707C60.8292 21.234 61.4361 20.0874 61.1415 19.2083C61.0878 18.9975 60.8724 18.809 60.6081 18.7628C60.117 18.6545 59.6626 18.9209 59.2875 19.2019C57.8066 20.4813 57.0796 22.231 56.5726 24.0722C56.2253 24.6133 55.7538 25.1392 55.1644 25.4657C54.8819 25.628 54.4481 25.7428 54.1853 25.5246C54.0437 25.3671 53.9905 25.1648 54.007 24.9501C54.1199 23.8566 54.745 22.9165 55.3429 22.0173C55.3952 21.9387 55.4473 21.8604 55.4988 21.7823C55.9378 21.1186 56.3261 20.6679 56.6306 20.3143C57.1223 19.7436 57.3958 19.426 57.3126 18.8747C57.2595 18.5446 57.0105 18.2777 56.7087 18.1883C56.3249 18.0466 55.8141 18.1584 55.4761 18.4686L55.4045 18.5384C54.6639 19.2607 53.8938 20.0117 52.9718 20.527C52.913 20.557 52.8551 20.587 52.7977 20.6167C52.3119 20.8682 51.8634 21.1004 51.1989 21.2036C51.2545 20.8211 51.2653 20.4247 51.2422 20.0546C51.1685 18.8752 50.7573 17.6365 49.4614 17.3925C49.011 17.3062 48.5225 17.4223 48.1721 17.5306C48.7421 15.9974 49.5577 14.5573 50.6717 13.3755C50.8902 13.1444 51.1377 12.9191 51.3819 12.6968C51.8965 12.2282 52.3962 11.7732 52.5783 11.3073C52.7271 10.9396 52.6576 10.5269 52.3855 10.2531C52.0944 9.9949 51.7559 9.90676 51.3313 9.99133C50.4559 10.2271 49.7859 10.9499 49.1996 11.618C48.268 12.229 47.0881 12.3075 45.9265 12.268C44.3695 12.2684 43.5472 11.6107 42.8035 10.471C42.5949 10.1961 42.3264 9.88249 41.9354 9.81629C41.5351 9.708 41.041 9.96817 40.8121 10.2039C40.5234 10.4807 40.3978 10.9341 40.5193 11.3031C40.6641 11.6975 40.8321 12.075 41 12.4522C41.4287 13.4151 41.8563 14.3757 41.8926 15.6083C41.903 16.0077 41.8926 16.398 41.7932 16.7834C38.5206 17.7051 35.9839 20.7421 35.2878 23.9463C35.2188 24.0586 35.1469 24.1825 35.0716 24.3122C34.5759 25.1666 33.9334 26.2739 33.0042 25.9805C32.4839 25.7239 32.1855 23.7154 35.0993 18.7634C35.1537 18.6155 35.2141 18.4674 35.2747 18.3186C35.5352 17.6796 35.8014 17.0265 35.6258 16.3111C35.4965 15.8127 34.9473 15.5847 34.496 15.4826C30.9924 14.9512 27.8808 18.2173 25.5486 20.6653C25.4417 20.7775 25.3365 20.8879 25.2329 20.9962C22.3655 23.7143 19.4281 25.0358 16.64 25.6182C9.7991 27.0517 3.23264 24.1707 4.47913 17.3786C5.66578 10.9136 11.4671 4.60398 20.7934 3.31272C28.0016 2.31454 31.7537 5.56145 30.6835 9.37737C30.163 11.2339 27.4178 16.6449 18.5258 17.4643C16.9968 17.6034 14.3948 17.1538 13.6688 15.6844C12.5347 13.3517 13.7188 11.1554 15.1873 9.76694C17.6942 7.55412 21.2108 6.70796 24.6322 6.72852C24.9084 6.74442 25.1567 6.68177 25.3716 6.42051C25.5015 6.24231 25.5448 6.05438 25.5107 5.77666C25.4251 5.38997 25.1171 5.22822 24.7816 5.17545C21.7451 4.83495 18.7448 5.38079 16.205 6.59912C13.1576 8.20098 10.5788 10.629 9.9584 13.9694C9.57087 16.153 10.5231 18.4619 12.512 19.5561C14.7365 20.6893 18.2433 20.4217 20.6673 19.8759C25.7899 18.5051 30.667 15.0922 32.5461 10.3019ZM26.6395 23.7877C27.7376 21.5577 29.6857 18.8129 32.0167 17.4986L32.0252 17.4946C32.3317 17.3488 33.0573 17.0035 33.2968 17.4811C33.3627 17.7558 33.1746 18.334 33.0082 18.6081C31.4835 21.1121 29.139 24.4781 27.9493 25.2708C26.3344 26.345 26.0728 24.6307 26.6395 23.7877ZM38.0469 22.5053C38.6771 21.042 39.8643 19.6286 41.5014 19.1722L41.5879 19.1527C41.4055 20.6627 40.7624 22.0531 40.0302 23.3546C39.6313 23.9783 39.1574 24.6756 38.5045 25.1248C38.3128 25.2641 37.9779 25.4021 37.7851 25.165C37.3178 24.5376 37.7162 23.2714 38.0469 22.5053ZM47.9127 19.6086C47.0615 20.047 46.5765 21.4652 46.4112 22.2506C46.2057 23.2385 46.0164 24.5837 46.4673 25.1747C46.571 25.2744 46.7064 25.3468 46.8718 25.3425C47.5485 25.357 48.0188 24.3162 48.2842 23.7182C48.7284 22.7235 49.1266 21.151 48.9844 20.1467C48.9303 19.6286 48.4337 19.3996 47.9127 19.6086Z" fill="url(#paint0_linear_201_419)" fill-opacity="0.8"/>
<defs>
<linearGradient id="paint0_linear_201_419" x1="0" y1="17.5176" x2="78" y2="17.5176" gradientUnits="userSpaceOnUse">
<stop stop-color="#6366F1"/>
<stop offset="1" stop-color="#818CF8"/>
</linearGradient>
</defs>
</svg>
