<svg width="80" height="16" viewBox="0 0 80 16" fill="none" xmlns="http://www.w3.org/2000/svg">
<path fill-rule="evenodd" clip-rule="evenodd" d="M6.30639 11.3859C7.58731 13.4086 9.93653 14.7656 12.5511 14.7656C16.4142 14.7656 18.5408 11.5548 18.5408 11.5548L18.8145 12.4101C17.026 14.6503 13.8309 15.9998 10.2563 15.9998C6.14074 15.9998 2.59136 14.109 0.958176 11.3822C0.34326 10.3552 0 9.20798 0 7.99978C0 3.5815 4.59142 0 10.2562 0C14.2587 0 17.4812 1.65112 19.1728 4.0439L12.457 7.91703L16.2897 2.24903C15.1932 1.58486 13.8479 0.962914 12.457 0.962914C8.52511 0.962914 5.28665 4.12296 5.28665 7.90963C5.28665 9.1784 5.66077 10.3705 6.30639 11.3859ZM24.2879 11.3835C24.2678 11.5127 24.2577 11.6432 24.2578 11.7738C24.2578 13.2112 25.4679 14.3767 26.9605 14.3767C28.4531 14.3767 29.663 13.2114 29.663 11.7738C29.6631 11.6427 29.653 11.5117 29.6328 11.3821C29.4373 10.1312 28.3154 9.17101 26.9603 9.17101C25.6055 9.17101 24.4834 10.1312 24.2879 11.3835ZM35.6609 15.74L34.3177 11.3825L32.3164 4.89046C32.3164 4.89046 31.052 1.57458 27.0621 2.9726C23.0722 4.37076 22.1724 4.89046 22.1724 4.89046H27.5802L28.8636 9.02309C27.8763 8.18317 26.4314 7.65337 24.8215 7.65337C21.9852 7.65337 19.661 9.29809 19.4492 11.3825C19.4389 11.4884 19.4336 11.5922 19.4336 11.6967C19.4336 13.9299 21.8457 15.74 24.8215 15.74C27.3086 15.74 29.4023 14.4755 30.0227 12.7562L30.9491 15.74H35.6609ZM49.3817 11.3825V15.74H44.5336V6.16605C44.5336 5.46156 43.9406 4.89046 43.2091 4.89046C42.6631 4.89033 42.1729 5.21294 41.9747 5.70293V15.74H37.2164V4.89046H34.4414C34.4414 4.89046 38.3019 2.63802 39.6405 2.63802C40.9092 2.63802 41.8481 3.57676 41.9655 4.77258C42.325 4.58587 42.6838 4.39193 43.0381 4.20047C44.524 3.39743 45.9292 2.63802 46.9578 2.63802C48.2738 2.63802 49.3451 3.64814 49.3817 4.90752V11.3825ZM57.5257 13.5306L56.8509 11.3828L54.8125 4.89067C54.9232 4.04407 55.79 3.2259 56.6992 3.2259C57.6176 3.2259 58.3737 3.89377 58.4729 4.75289L60.4871 11.3828L61.0607 13.2707C61.0685 13.3358 61.0725 13.4019 61.0725 13.4692C61.0725 14.4183 60.2738 15.1875 59.2882 15.1875C58.3241 15.1875 57.5387 14.4511 57.5257 13.5306ZM64.5679 11.3833C63.6498 14.0645 61.0276 16 57.9357 16C54.8437 16 52.2213 14.0647 51.3029 11.3824C51.0704 10.7026 50.9523 9.99132 50.9531 9.27557C50.9531 5.56169 54.0792 2.55123 57.9357 2.55123C61.7919 2.55123 64.918 5.56169 64.918 9.27557C64.918 10.0117 64.7952 10.7204 64.5679 11.3833ZM72.5951 15.74V11.3825V5.70293C72.7933 5.21294 73.2835 4.89033 73.8295 4.89046C74.561 4.89046 75.1539 5.46156 75.1539 6.16605V15.74H80.0021V4.90752C79.9658 3.64814 78.8945 2.63802 77.5782 2.63802C76.5497 2.63802 75.1449 3.39725 73.6593 4.20018C73.3048 4.39173 72.9458 4.58577 72.5862 4.77258C72.4685 3.57676 71.5297 2.63802 70.2609 2.63802C68.9221 2.63802 65.1758 4.89046 65.1758 4.89046H67.8367V15.74H72.5951Z" fill="url(#paint0_linear_201_402)" fill-opacity="0.8"/>
<defs>
<linearGradient id="paint0_linear_201_402" x1="0" y1="8.00002" x2="80.0021" y2="8.00002" gradientUnits="userSpaceOnUse">
<stop stop-color="#6366F1"/>
<stop offset="1" stop-color="#818CF8"/>
</linearGradient>
</defs>
</svg>
