<svg width="80" height="33" viewBox="0 0 80 33" fill="none" xmlns="http://www.w3.org/2000/svg">
<path fill-rule="evenodd" clip-rule="evenodd" d="M26.7872 6.95775C29.5105 9.15981 33.0436 12.9134 32.6011 17.2337C32.0696 20.6498 28.4103 23.2186 25.3116 24.0362C22.3013 24.9118 18.524 24.8242 15.4544 24.1237C15.4408 24.1603 15.4272 24.1974 15.4134 24.2348L15.4134 24.2348C15.2187 24.7652 14.9985 25.365 14.3922 25.5835C13.9792 25.7294 13.4477 25.6418 13.1232 25.3792C12.7187 25.0046 12.6373 24.476 12.5575 23.9574C12.4569 23.3034 12.3588 22.6653 11.6181 22.3726C9.02088 21.2923 6.21719 19.1609 4.88953 16.5337C4.71251 16.0084 4.91903 15.483 5.24357 15.0744C7.28017 13.4688 9.84741 12.8267 12.4151 12.3301C12.4986 12.3631 12.5159 12.312 12.5366 12.2508C12.5525 12.2039 12.5704 12.1511 12.6216 12.1258C12.6436 11.8643 12.6637 11.6021 12.6837 11.34V11.34C12.7979 9.84688 12.9118 8.35764 13.3887 7.01655C13.5165 6.79533 13.8312 6.72469 14.0382 6.87062C15.0422 7.62884 15.1315 8.80073 15.2212 9.97814V9.97815C15.2766 10.7042 15.3321 11.4324 15.6023 12.067C18.701 12.2129 21.7998 12.3588 24.249 14.0817C25.0755 14.7529 25.2769 16.035 25.0161 16.7676C24.7557 17.499 23.895 18.023 23.0979 18.0806C23.0468 18.0806 22.9913 18.081 22.9328 18.0815C22.3833 18.0862 21.569 18.0932 21.6223 17.7307C21.645 17.5767 21.9162 17.3849 22.2116 17.1762L22.2116 17.1762C22.6857 16.8411 23.2218 16.4622 22.8914 16.1247C22.1234 15.3405 18.2926 14.8728 15.9 14.5807L15.8726 14.5774C15.5775 14.519 15.3069 14.6066 15.3069 14.9276C15.297 15.2973 15.2839 15.6734 15.2707 16.0535L15.2707 16.0536L15.2707 16.0537C15.2044 17.9546 15.1347 19.9535 15.4544 21.7301C15.4839 21.8764 15.6609 22.0515 15.8088 22.0799C20.0287 22.7516 24.485 22.3717 27.7903 19.9781C29.3249 18.7527 29.8269 17.029 29.5609 15.1319C28.2328 9.84801 22.6554 6.66547 18.081 4.62203C13.6252 2.69533 8.69635 1.70259 3.41393 1.96569C2.57286 2.0266 1.24007 2.3138 1.23023 2.6082C1.22617 2.72994 1.48366 2.7855 1.77419 2.84819C2.18622 2.93709 2.66472 3.04033 2.55789 3.36703C2.37617 3.92368 0.831722 3.59333 0.374203 3.45459C-0.0833162 3.31585 -0.0388471 2.66615 0.0791672 2.25755C1.23023 0.243292 4.44227 0.0804432 5.89308 0.00980478C13.9198 -0.19492 21.6818 2.829 26.7872 6.95775ZM40.243 3.57094C40.7872 3.59612 41.307 3.80173 41.7187 4.15466C42.2796 4.68001 42.4267 5.55601 42.1612 6.2569C41.129 8.35871 38.6742 9.76259 36.9968 10.227C35.9933 10.4605 34.7246 10.4605 33.8096 10.1103C33.6662 10.1953 33.5302 10.3416 33.3933 10.4888C33.1073 10.7965 32.8179 11.1078 32.452 10.8691C32.0104 10.528 32.0335 10.0781 32.0564 9.63017C32.0742 9.2839 32.0919 8.93878 31.8948 8.64592C31.8553 8.58734 31.7905 8.55175 31.7199 8.51299C31.6237 8.46024 31.5169 8.40161 31.4488 8.27115C30.8288 6.92817 31.5964 5.64357 32.452 4.62206C33.8784 3.04771 37.9708 1.29359 40.243 3.57094ZM35.4943 4.62185C34.6972 4.76778 33.7972 5.11082 33.3106 5.67297C32.8235 6.23469 32.514 6.78245 32.809 7.36617C33.2619 7.03348 33.6127 6.64461 33.9608 6.25865L33.9608 6.25863C34.4067 5.76427 34.8483 5.27471 35.4947 4.91413C35.4945 4.87254 35.5167 4.83469 35.5375 4.79923C35.5753 4.73481 35.6084 4.67833 35.4943 4.62185ZM35.2877 7.71678C36.7338 6.25749 38.2684 4.73897 40.305 4.91451C40.5103 5.00207 40.7185 5.20637 40.807 5.41025C41.0127 5.93602 40.7185 6.43218 40.305 6.8116C38.8884 8.09663 37.0293 8.65074 35.0812 8.47562C34.7944 8.29323 34.9627 8.11085 35.1221 7.93823C35.1922 7.86225 35.2606 7.78815 35.2877 7.71678ZM57.9508 13.6131C58.8953 15.8905 59.6919 19.4808 57.9508 21.6706C57.4787 22.1959 56.6526 22.6802 56.1215 22.2835C54.6717 21.1323 53.8436 19.6088 53.016 18.0863C52.7316 17.5631 52.4472 17.04 52.1377 16.5321C52.0181 16.473 51.9793 16.5606 51.9394 16.6506C51.9203 16.6939 51.9009 16.7377 51.8722 16.7661C51.7109 17.5 51.7181 18.3154 51.7253 19.1317V19.1317C51.7379 20.5556 51.7504 21.9822 50.869 22.9839C50.338 23.0715 49.8411 22.8012 49.659 22.2835C49.1657 20.7778 49.4042 19.2258 49.6395 17.6948C49.7281 17.1182 49.8162 16.5446 49.8646 15.9776C49.968 15.715 50.0565 15.4414 50.1455 15.1665C50.4127 14.3412 50.6838 13.5037 51.3702 12.9122C52.5086 13.3626 53.1902 14.4387 53.8349 15.4567C54.0259 15.7583 54.2136 16.0547 54.409 16.3283C54.6355 16.6585 54.8461 17.0044 55.0567 17.3502L55.0567 17.3503C55.4229 17.9518 55.7891 18.5533 56.2387 19.0722C56.7218 18.8673 56.6428 18.3351 56.5755 17.8813C56.5565 17.7532 56.5384 17.6313 56.5342 17.5249C56.3256 15.854 55.8889 14.2963 55.4448 12.7122L55.4448 12.7121C55.3845 12.4973 55.3242 12.282 55.2642 12.0658C55.2581 11.9657 55.241 11.8507 55.223 11.729V11.729V11.7289C55.1569 11.2834 55.0775 10.7478 55.4708 10.5186C56.6507 11.0369 57.2243 12.1752 57.7511 13.2207C57.818 13.3535 57.8842 13.4848 57.9508 13.6131ZM48.3903 13.9638C48.6861 13.8982 49.0402 13.3509 49.0402 12.9127C48.9544 12.6594 48.7044 12.5689 48.4746 12.4858L48.4493 12.4766C44.967 11.8345 40.8061 11.6298 38.0619 14.0239C37.5308 14.6076 37.5308 15.5711 37.7668 16.2716C37.8895 16.5998 38.4159 16.8845 38.829 16.9721C39.4536 17.0313 40.0832 17.0734 40.7113 17.1153C42.2495 17.2181 43.7785 17.3202 45.2034 17.6725C45.3065 17.7124 45.4183 17.7509 45.5343 17.7908L45.5343 17.7908C46.1824 18.0139 46.958 18.2809 47.0331 19.0735C47.004 19.3361 46.679 19.5988 46.4135 19.6864L46.3907 19.6927C44.0947 20.3333 41.5069 21.0552 39.1834 20.0366C38.8734 19.8826 39.0654 19.3941 39.3309 19.219C40.2337 18.7869 41.0555 19.1281 41.8898 19.4746C42.801 19.853 43.7272 20.2376 44.7904 19.628C44.8782 19.5686 44.9936 19.5288 45.1106 19.4885C45.4008 19.3885 45.7013 19.285 45.6178 18.8687C43.7877 17.7893 41.1614 17.3215 39.0363 18.1683C38.5053 18.4479 38.1854 19.032 38.1803 19.7739C38.2393 20.7083 39.0457 21.4646 39.8919 21.9341C42.106 23.1887 45.4408 23.2475 47.624 21.8753C48.51 21.262 48.8589 20.1745 48.8046 19.2769C48.7161 18.1387 48.2923 16.7682 47.122 16.4742C45.7089 16.1199 44.2234 15.9561 42.7428 15.7929C41.9041 15.7004 41.067 15.6081 40.2456 15.4815C40.2094 15.4661 40.1678 15.4517 40.1242 15.4366L40.1242 15.4366C39.9191 15.3654 39.671 15.2793 39.744 15.0145C41.3872 14.4727 43.2226 14.3668 45.0543 14.261C46.183 14.1958 47.3102 14.1307 48.3903 13.9638ZM36.1429 14.0239C36.4084 16.8262 36.5559 19.425 36.4969 22.3732C36.4502 22.673 36.1636 22.7907 35.8998 22.899C35.8301 22.9277 35.762 22.9556 35.7003 22.9861C35.2282 23.0737 34.6181 22.9743 34.4312 22.7235C33.918 21.9062 33.9279 20.8726 33.9377 19.8491C33.9409 19.5192 33.944 19.1903 33.9297 18.8701C33.9442 18.5301 33.9555 18.1854 33.967 17.8381V17.8381V17.838V17.8379V17.8379V17.8378C34.0252 16.0686 34.0856 14.2334 34.5792 12.6226C34.692 12.3426 35.0217 12.0972 35.2872 12.2719C35.9953 12.6226 36.1133 13.3235 36.1429 14.0239ZM68.9302 14.3717C69.2206 14.2136 69.0722 13.8489 68.9302 13.6129C68.6352 13.1751 68.1627 12.4865 67.81 12.4163C66.038 12.212 64.0904 12.4163 62.3492 12.7669C62.0943 12.8058 61.8327 12.8188 61.5721 12.8317C61.0493 12.8577 60.5306 12.8835 60.0775 13.1172C59.9807 13.9216 60.5568 14.1857 61.1229 14.4453C61.4197 14.5814 61.7138 14.7163 61.9067 14.9271C61.7213 15.132 61.6326 15.4245 61.5455 15.7119C61.3966 16.2029 61.2521 16.6791 60.638 16.6791C60.284 16.7667 60.0475 17.1165 60.136 17.5255C60.5155 18.1585 60.2182 18.751 59.9229 19.3398C59.7822 19.6202 59.642 19.8997 59.5755 20.1823C59.2505 21.4077 59.6781 22.8505 60.6376 23.276C63.1941 24.3343 65.5938 22.8382 67.4542 21.3785C67.6366 20.967 67.4288 20.6005 67.2355 20.2596C67.2095 20.2136 67.1837 20.1681 67.1592 20.1231C66.2748 19.9338 65.3123 20.1089 64.3974 20.2752L64.3973 20.2752L64.3971 20.2753C64.1833 20.3142 63.972 20.3526 63.765 20.3857C63.5905 20.4093 63.422 20.4542 63.2583 20.4978C62.8637 20.603 62.4971 20.7007 62.1423 20.4737C62.2208 20.2577 62.271 20.0263 62.3211 19.7956C62.4402 19.2463 62.5587 18.7003 63.0573 18.3715C63.372 18.2076 64.1148 18.2291 64.909 18.2522C65.5185 18.2699 66.1584 18.2885 66.6585 18.2247C67.0805 18.2027 67.2524 17.2299 67.101 16.9693C66.656 16.3413 65.8011 16.4192 65.0051 16.4918C64.6913 16.5204 64.3867 16.5481 64.1199 16.5315C63.9976 16.5442 63.8926 16.4723 63.7851 16.3985C63.7494 16.3741 63.7134 16.3494 63.6765 16.3276C63.5294 15.8019 63.8543 15.2181 64.2674 14.8679C64.791 14.8082 65.3453 14.7994 65.9013 14.7906C66.9753 14.7735 68.0551 14.7564 68.9302 14.3717ZM6.24649 15.7157C8.13515 15.0152 10.2893 14.8109 12.3259 14.7817C12.4036 14.8126 12.4074 14.8597 12.411 14.9059C12.4143 14.9471 12.4176 14.9877 12.4735 15.0152C12.503 16.9711 12.503 18.8394 12.2079 20.7374C10.9683 20.5618 9.60562 19.8098 8.5777 19.2189C7.54978 18.6271 6.45259 17.7883 5.68549 16.7668C5.39046 16.2702 5.86294 15.8616 6.24649 15.7157ZM73.3267 12.1253C73.2831 13.3759 72.6812 14.393 72.0814 15.4065C71.4632 16.4513 70.8471 17.4924 70.8471 18.7814C70.8576 18.7918 70.8677 18.8027 70.8776 18.8135C70.8847 18.8214 70.8917 18.8293 70.8986 18.8372C70.9626 18.9095 71.0195 18.9739 71.1126 18.9282C71.5425 18.4638 71.9709 17.9555 72.4083 17.4363C73.9236 15.6381 75.548 13.7104 77.7236 13.0309C78.4624 12.9726 79.1299 13.6075 79.4061 14.0821C80.3802 16.0088 80.145 18.7239 78.787 20.4755C77.3858 22.1949 74.9498 23.9203 72.1769 23.628C71.0263 26.4307 70.228 29.3793 69.7854 32.4447C69.6076 32.9064 69.2459 32.7056 68.9269 32.5285C68.8224 32.4705 68.7225 32.4151 68.6352 32.3863C66.4999 30.7173 67.8384 26.5921 68.2638 25.2812L68.2639 25.281C68.3146 25.1246 68.3524 25.0082 68.3697 24.9409C68.4741 24.5354 68.7767 23.7749 69.104 22.9526C69.2846 22.4987 69.4728 22.0259 69.6392 21.5837C68.5176 19.5991 69.2257 17.2045 70.1403 15.3654C70.8484 14.1392 71.8233 12.9129 72.9739 11.979C73.1202 11.9794 73.2382 12.0086 73.3267 12.1253ZM77.6002 15.5313C77.7361 15.3877 77.8723 15.2438 78.0782 15.2777C78.124 15.3683 78.1875 15.4544 78.2516 15.5414C78.3527 15.6786 78.4553 15.8177 78.4917 15.979C78.5802 17.5851 77.7242 18.9856 76.367 19.8324C76.1563 19.9172 75.9478 20.0204 75.7381 20.1241C75.1541 20.413 74.561 20.7063 73.8874 20.6204C74.5658 18.8121 75.922 17.2951 77.278 15.7784L77.2816 15.7743C77.4049 15.7377 77.5024 15.6346 77.6002 15.5313Z" fill="url(#paint0_linear_201_367)" fill-opacity="0.8"/>
<defs>
<linearGradient id="paint0_linear_201_367" x1="0" y1="16.364" x2="80.0004" y2="16.364" gradientUnits="userSpaceOnUse">
<stop stop-color="#6366F1"/>
<stop offset="1" stop-color="#818CF8"/>
</linearGradient>
</defs>
</svg>
