<svg width="24" height="24" viewBox="0 0 24 24" fill="none" xmlns="http://www.w3.org/2000/svg">
<path d="M12 15.8C14.2091 15.8 16 14.0091 16 11.8C16 9.59085 14.2091 7.79999 12 7.79999C9.79086 7.79999 8 9.59085 8 11.8C8 14.0091 9.79086 15.8 12 15.8Z" stroke="#4F46E5" stroke-opacity="0.48" stroke-width="2" stroke-miterlimit="10" stroke-linecap="square"/>
<path d="M7.0001 21.6C5.19311 20.6788 3.676 19.276 2.61644 17.5465C1.55687 15.817 0.996094 13.8282 0.996094 11.8C0.996094 9.77176 1.55687 7.783 2.61644 6.05352C3.676 4.32405 5.19311 2.92119 7.0001 2" stroke="#4F46E5" stroke-width="2" stroke-miterlimit="10" stroke-linecap="square"/>
<path d="M17 2C18.807 2.92119 20.3241 4.32405 21.3837 6.05352C22.4432 7.783 23.004 9.77176 23.004 11.8C23.004 13.8282 22.4432 15.817 21.3837 17.5465C20.3241 19.276 18.807 20.6788 17 21.6" stroke="#4F46E5" stroke-width="2" stroke-miterlimit="10" stroke-linecap="square"/>
</svg>
