<svg width="89" height="36" viewBox="0 0 89 36" fill="none" xmlns="http://www.w3.org/2000/svg">
<path fill-rule="evenodd" clip-rule="evenodd" d="M45.2749 14.3645C46.2612 13.8271 47.2469 13.5579 48.5019 13.5579C51.5503 13.5579 53.8812 16.248 53.8812 19.9234C53.8812 24.5856 51.0124 27.5444 46.2607 27.5444C44.5568 27.5444 42.8529 27.2752 41.2392 26.9164C41.3293 25.0334 41.4199 13.5579 41.2392 11.4062C41.0616 10.3298 40.7913 9.88196 39.9852 9.70282L39.3577 9.61326V9.07533L45.365 8C45.2749 8.8962 45.2749 11.4957 45.2749 14.3645ZM45.364 26.4686C45.6321 26.5576 46.081 26.5576 46.4398 26.5576C48.3228 26.5576 49.6679 23.779 49.6684 20.1916C49.6684 17.3233 48.5925 14.9925 46.6189 14.9925C46.1701 14.9925 45.8118 15.0821 45.2739 15.2617C45.1848 19.9234 45.2739 25.2136 45.364 26.4686ZM0.984375 8.35827H16.7639L16.8539 13.648L15.9572 13.9172C15.061 11.227 13.806 9.70334 11.3846 9.70334H8.24714C8.15705 11.4067 8.06748 14.2754 8.06748 17.3239L10.2187 17.2338C11.5637 17.2338 12.1902 16.1584 12.4599 14.6342H13.2671V20.9977H12.4599C12.1907 19.474 11.5637 18.3982 10.2187 18.3982L8.06697 18.3086C8.06697 20.6389 8.15653 22.5219 8.24662 23.6878C8.42576 25.3917 8.87411 26.1983 10.0395 26.2874L11.1154 26.4675V27.1846H0.984375V26.4675L1.88109 26.2874C3.04651 26.1988 3.49435 25.3917 3.67348 23.6878C3.85314 20.9097 3.94322 15.0816 3.67348 11.854C3.49486 10.1507 3.04599 9.4336 1.88109 9.25447L0.984375 9.1649V8.35827ZM28.5956 20.4612C28.5956 16.427 26.3543 13.3786 21.8713 13.3786C17.3882 13.3786 14.8782 16.6062 14.8782 20.4612C14.8782 24.4959 17.1195 27.5448 21.602 27.5448C26.0851 27.5448 28.5956 24.3163 28.5956 20.4612ZM19.0916 20.4612C19.0916 16.965 19.6295 14.2753 21.602 14.2753C23.4856 14.2753 24.3812 17.0545 24.3812 20.4612C24.3812 23.9575 23.8423 26.6471 21.7817 26.6471C19.9883 26.6471 19.0916 23.8679 19.0916 20.4612ZM61.9464 13.3786C57.3738 13.3786 55.0429 16.8754 55.0429 20.5513C55.0429 24.6756 57.9117 27.5443 61.9464 27.5448C64.4564 27.5448 66.4284 26.2888 67.3251 25.0338L66.9674 24.586C66.0702 25.214 65.3531 25.5718 63.9184 25.5718C60.6904 25.5718 59.0766 23.1508 59.1667 19.8337H67.5048C67.5048 16.1583 65.7108 13.3786 61.9464 13.3786ZM63.3805 18.7579L59.1667 18.848C59.2557 16.7853 60.0639 14.2753 61.5876 14.2753C63.1113 14.2753 63.3805 16.965 63.3805 18.7579ZM74.0515 13.3786C75.6653 13.3786 77.0994 13.6473 78.1753 14.0962L78.2669 17.5925L77.6399 17.7716C76.8318 15.3507 75.7559 14.3644 74.1432 14.3644C73.0673 14.3644 72.2591 15.1715 72.2591 16.337C72.2591 17.5029 73.1548 18.1304 75.6658 19.1161C77.9967 20.0134 78.9835 21.0887 78.9835 22.9717C78.9835 25.7504 76.7417 27.5443 73.2449 27.5443C71.541 27.5443 69.569 27.185 68.4931 26.7372L68.4031 22.7926L69.0311 22.6124C70.0168 25.3025 71.2729 26.2883 72.9757 26.2883C74.4103 26.2883 75.2175 25.3025 75.2175 24.2267C75.2175 23.1508 74.5894 22.5228 72.3487 21.7167C70.1944 20.9991 68.6718 20.0134 68.6718 17.682C68.6718 15.3507 70.7349 13.3786 74.0515 13.3786ZM34.6023 16.5171C36.0364 13.2891 38.7266 12.8417 40.2503 13.7374L38.8156 17.4138C37.0227 16.2484 35.0502 16.7858 34.6023 17.4138C34.5122 19.5655 34.5122 22.9722 34.6914 24.6761C34.7815 25.7509 35.0507 26.2888 35.9469 26.3789L37.0227 26.469V27.1861H28.6852V26.469L29.3126 26.3789C30.1203 26.2888 30.4781 25.7509 30.5681 24.6761C30.6577 22.7936 30.7473 19.0276 30.5681 16.8759C30.4781 15.71 30.1203 15.2621 29.3126 15.1721L28.6852 15.0825V14.5446L34.6914 13.3791L34.6023 16.5171Z" fill="url(#paint0_linear_201_459)" fill-opacity="0.8"/>
<defs>
<linearGradient id="paint0_linear_201_459" x1="0.984375" y1="17.7724" x2="78.9835" y2="17.7724" gradientUnits="userSpaceOnUse">
<stop stop-color="#6366F1"/>
<stop offset="1" stop-color="#818CF8"/>
</linearGradient>
</defs>
</svg>
