<svg width="20" height="20" viewBox="0 0 20 20" fill="none" xmlns="http://www.w3.org/2000/svg">
<path fill-rule="evenodd" clip-rule="evenodd" d="M10 2C5.6 2 2 5.6 2 10C2 13.5 4.3 16.5 7.5 17.6C7.9 17.7 8 17.4 8 17.2C8 17 8 16.5 8 15.8C5.8 16.3 5.3 14.8 5.3 14.8C4.9 13.9 4.4 13.6 4.4 13.6C3.7 13.1 4.5 13.1 4.5 13.1C5.3 13.2 5.7 13.9 5.7 13.9C6.4 15.2 7.6 14.8 8 14.6C8.1 14.1 8.3 13.7 8.5 13.5C6.7 13.3 4.9 12.6 4.9 9.5C4.9 8.6 5.2 7.9 5.7 7.4C5.6 7.2 5.3 6.4 5.8 5.3C5.8 5.3 6.5 5.1 8 6.1C8.6 5.9 9.3 5.8 10 5.8C10.7 5.8 11.4 5.9 12 6.1C13.5 5.1 14.2 5.3 14.2 5.3C14.6 6.4 14.4 7.2 14.3 7.4C14.8 8 15.1 8.7 15.1 9.5C15.1 12.6 13.2 13.2 11.4 13.4C11.7 13.8 12 14.3 12 15C12 16.1 12 16.9 12 17.2C12 17.4 12.1 17.7 12.6 17.6C15.8 16.5 18.1 13.5 18.1 10C18 5.6 14.4 2 10 2Z" fill="#6366F1" fill-opacity="0.88"/>
</svg>
