<svg width="16" height="16" viewBox="0 0 16 16" fill="none" xmlns="http://www.w3.org/2000/svg">
<path d="M4 3.24976C4 3.66397 3.66421 3.99976 3.25 3.99976C2.83579 3.99976 2.5 3.66397 2.5 3.24976C2.5 2.83554 2.83579 2.49976 3.25 2.49976C3.66421 2.49976 4 2.83554 4 3.24976Z" fill="#4B5563" stroke="#4B5563"/>
<path d="M13.865 6.13475L14.414 5.58575C15.195 4.80475 15.195 3.53875 14.414 2.75775L13.242 1.58575C12.461 0.80475 11.195 0.80475 10.414 1.58575L2 9.99975L1 14.9998L6 13.9998L7.16 12.8398" stroke="#4B5563" stroke-width="2" stroke-linecap="round" stroke-linejoin="round"/>
<path d="M12.9794 10.225L14.4999 10.9768L12.9794 11.7285L12.8277 11.8035L12.7527 11.9551L12.001 13.4757L11.2492 11.9551L11.1742 11.8035L11.0226 11.7285L9.50198 10.9768L11.0226 10.225L11.1742 10.15L11.2492 9.99835L11.9896 8.50074C11.9929 8.50028 11.9966 8.5 12.0006 8.5C12.0049 8.5 12.0088 8.50033 12.0124 8.50085L12.7527 9.99835L12.8277 10.15L12.9794 10.225ZM12.002 8.47566C12.0019 8.47579 12.0019 8.47592 12.0018 8.47604L12.002 8.47566Z" fill="#4B5563" stroke="#4B5563"/>
</svg>
