<svg width="82" height="24" viewBox="0 0 82 24" fill="none" xmlns="http://www.w3.org/2000/svg">
<path fill-rule="evenodd" clip-rule="evenodd" d="M40.8704 24H46.5432L49.9205 5.76833H66.8202L66.9884 4.82697H50.1151L50.4713 2.75799C50.4713 2.75799 50.5076 0.788795 53.5518 0.788795H67.7436L67.8887 0.000452295H49.2213C49.2213 0.000452295 45.3493 -0.145907 44.4159 4.82697H2.54615L2.35156 5.76833H44.251L40.8704 24ZM0 18.4548H5.51778L6.39178 13.7414C6.39178 13.7414 6.86671 10.2986 8.84229 10.2986C10.2044 10.2986 9.87791 12.0017 9.87791 12.0017L8.6543 18.4149H14.2545L15.0857 13.7414C15.0857 13.7414 15.5606 10.2986 17.5362 10.2986C18.8983 10.2986 18.5718 12.0017 18.5718 12.0017L17.3482 18.4149H23.3277L24.515 12.0017C24.515 12.0017 25.643 8.2629 21.3917 8.2629C17.1404 8.2629 15.6727 10.7676 15.6727 10.7676C15.6727 10.7676 15.9102 8.27621 12.9155 8.27621C9.92078 8.27621 6.96566 10.6545 6.96566 10.6545L7.38452 8.38598H1.86015L0 18.4548ZM36.6653 8.38931C26.4642 8.38931 25.1186 11.6325 24.891 15.0353C24.891 15.0353 24.5876 18.5712 28.1496 18.5712C32.5262 18.5712 35.6726 13.7414 35.6726 13.7414L34.7986 18.4548L40.4549 18.4349L42.315 8.40261L42.2624 8.40247C41.7348 8.40104 37.4025 8.38931 36.6653 8.38931ZM32.2228 15.4345C32.2228 15.4345 29.8514 15.6174 30.1944 13.3322C30.8969 8.66872 36.5466 9.01133 36.5466 9.01133C36.5466 9.01133 35.6924 15.4345 32.2228 15.4345ZM60.3818 7.6213C68.7689 7.6213 65.7643 12.817 65.7643 12.817H55.1114C55.1114 12.817 52.3937 17.9463 56.4669 17.9463C58.8877 17.9463 60.6489 13.7451 60.6489 13.7451H65.5565C65.5565 13.7451 64.6825 18.5583 56.2723 18.5583C56.1172 18.5583 55.8652 18.5616 55.5506 18.5657C55.0288 18.5725 54.3351 18.5816 53.6272 18.5816C47.1068 18.5816 49.6068 12.521 49.6332 12.4578C50.5434 10.2657 52.7532 7.6213 58.3039 7.6213H60.3818ZM60.4642 12.0021C60.4642 12.0021 62.3508 8.24332 59.521 8.24332C57.1199 8.24332 55.5005 12.0021 55.5005 12.0021H60.4642ZM66.0711 18.4652H71.6053L74.102 4.82384H68.5677L66.0711 18.4652ZM73.9701 18.4652H79.5043L82.001 4.82384H76.4668L73.9701 18.4652Z" fill="url(#paint0_linear_201_432)" fill-opacity="0.8"/>
<defs>
<linearGradient id="paint0_linear_201_432" x1="0" y1="12" x2="82.001" y2="12" gradientUnits="userSpaceOnUse">
<stop stop-color="#6366F1"/>
<stop offset="1" stop-color="#818CF8"/>
</linearGradient>
</defs>
</svg>
