<svg width="72" height="36" viewBox="0 0 72 36" fill="none" xmlns="http://www.w3.org/2000/svg">
<path fill-rule="evenodd" clip-rule="evenodd" d="M70.6222 7.61365C70.2559 7.61365 69.9047 7.75914 69.6457 8.01813C69.3867 8.27711 69.2412 8.62837 69.2412 8.99463C69.2412 9.3609 69.3867 9.71215 69.6457 9.97114C69.9047 10.2301 70.2559 10.3756 70.6222 10.3756C70.8037 10.3755 70.9833 10.3395 71.1509 10.2698C71.3184 10.2001 71.4705 10.098 71.5985 9.96931C71.7265 9.84068 71.8278 9.68804 71.8967 9.52016C71.9656 9.35227 72.0007 9.17244 71.9999 8.99098C71.9998 8.62565 71.8546 8.27533 71.5963 8.01704C71.3379 7.75875 70.9875 7.61365 70.6222 7.61365ZM70.6222 10.2094C70.4623 10.2095 70.3041 10.178 70.1564 10.1168C70.0087 10.0555 69.8746 9.96572 69.7618 9.85251C69.6489 9.7393 69.5596 9.60491 69.4988 9.45707C69.438 9.30922 69.407 9.15083 69.4077 8.99098C69.4078 8.83171 69.4394 8.67403 69.5005 8.52696C69.5616 8.37989 69.6512 8.24631 69.764 8.13386C69.8768 8.02142 70.0106 7.93232 70.1579 7.87165C70.3051 7.81098 70.4629 7.77993 70.6222 7.78028C70.9433 7.78028 71.2512 7.90784 71.4783 8.13489C71.7053 8.36194 71.8329 8.66988 71.8329 8.99098C71.8337 9.15056 71.803 9.30873 71.7425 9.45642C71.6821 9.6041 71.5931 9.7384 71.4806 9.8516C71.3681 9.9648 71.2344 10.0547 71.0871 10.1161C70.9398 10.1775 70.7818 10.2092 70.6222 10.2094Z" fill="url(#paint0_linear_201_467)" fill-opacity="0.8"/>
<path fill-rule="evenodd" clip-rule="evenodd" d="M71.3299 8.62986C71.3299 8.49979 71.2721 8.3624 71.1563 8.29737C71.0405 8.22886 70.9104 8.22155 70.7795 8.22155H70.1076V9.76513H70.2954V9.0528H70.6425L71.0832 9.76513H71.3079L70.8411 9.0528C71.1163 9.04549 71.3299 8.9335 71.3299 8.62986ZM70.5848 8.90464H70.2954V8.35894H70.7364C70.9281 8.35894 71.1378 8.3878 71.1378 8.6264C71.1382 8.94081 70.8011 8.90464 70.5848 8.90464ZM24.3832 31.7689L15.3838 27.3745C15.186 27.2721 15.0841 27.0104 15.0879 26.8392L15.1118 24.4132C15.1152 24.2423 15.1491 24.0668 15.3735 23.906C16.3355 23.2925 19.315 21.6435 22.3929 17.1513C26.4922 11.1682 22.3929 6.14151 15.9861 7.50999C10.2959 8.72531 4.50297 11.8063 1.99038 13.4815C-0.248989 14.9743 0.0619587 16.778 0 18.3955C0.124302 19.0793 0.373292 19.0174 0.933229 18.3331C5.10063 14.4767 11.4454 11.5531 12.6273 11.0555C13.8091 10.5579 16.6084 8.87847 19.9053 9.62467C23.0721 10.342 22.3024 14.6476 21.3357 16.4671C20.2782 18.4574 17.2615 21.3499 15.893 22.0653C15.3731 22.337 15.178 22.0653 15.178 21.6297L15.3958 12.2681C15.3958 11.6462 15.1156 11.3661 14.4937 11.5839L13.4985 12.0815C12.8143 12.4859 12.8455 12.6414 12.7831 13.139L12.6323 23.9314C12.6273 24.1642 12.5187 24.3512 12.3906 24.4062L9.1441 26.2323C8.39791 26.6056 8.58417 27.1655 9.1441 27.3522L11.7568 28.596C12.379 28.8446 12.5657 29.0312 12.5657 29.6531L12.4722 34.8784C14.8051 34.412 14.9601 33.2921 15.0225 32.5455V30.9592C15.0844 30.586 15.3023 30.4617 15.6132 30.524L23.2018 34.1938C23.886 34.5051 24.2593 34.3801 24.7569 33.5099C25.2541 32.6398 25.3165 32.2046 24.3832 31.7689ZM37.6451 18.5856C36.5907 19.1944 36.1027 20.3339 36.5183 21.0532C36.9332 21.7728 38.1877 21.8936 39.2429 21.2841C40.2982 20.6749 40.7546 19.5665 40.339 18.8473C39.9241 18.128 38.7003 17.976 37.6451 18.5856Z" fill="url(#paint1_linear_201_467)" fill-opacity="0.8"/>
<path fill-rule="evenodd" clip-rule="evenodd" d="M33.7569 19.3599C33.4702 19.7093 32.9172 20.7753 32.6062 21.4284C32.2953 22.0811 31.6422 23.5585 30.9892 23.5585C30.2988 23.5585 30.2114 21.8483 30.2114 21.226C30.2114 20.6037 29.8381 20.5106 29.6515 20.5417C29.4648 20.5729 28.9361 20.7592 28.7806 21.4126C28.6251 22.0657 27.7854 24.8962 26.8522 24.8962C26.2614 24.8962 25.8258 23.1856 25.795 22.6568C25.7638 22.1284 25.5149 21.6928 24.9861 21.6928C24.6128 21.6928 24.1464 21.8794 23.9597 22.0973C23.7731 22.3151 23.7423 22.6568 22.7467 22.4394C21.8447 22.4082 20.9738 22.875 19.9166 24.6476C19.2801 25.7147 18.7629 27.7036 19.73 28.504C20.632 29.2502 22.218 27.9129 22.6848 27.353C23.1512 26.7934 23.5556 26.389 23.7423 26.0784C23.9286 25.7671 24.1156 25.7982 24.2087 26.1092C24.3018 26.4205 24.8306 27.6331 25.5152 27.6023C26.1995 27.5712 27.0704 27.0424 28.0967 25.2383C28.2834 24.865 28.5631 24.8962 28.6255 25.2071C28.6878 25.5185 29.0919 26.5448 29.7761 26.5448C30.4292 26.5448 31.1558 25.5073 31.5179 24.8966C31.7665 24.4767 32.1398 24.6791 32.1398 25.0832C32.1398 25.4873 31.9532 35.0355 31.9532 35.0355C31.9532 35.4707 32.124 35.595 32.435 35.595H33.7881C34.0367 35.595 34.2545 35.3776 34.2545 35.0355L34.5343 19.5623C34.5347 19.1887 34.1148 18.9247 33.7569 19.3599ZM23.1827 25.4557C22.9026 25.9225 22.1564 27.1663 21.5033 26.9489C21.1612 26.7622 21.6172 25.5181 21.8454 25.0828C22.1876 24.4298 23.1904 23.3895 23.6492 23.652C24.0848 23.9006 23.4625 24.9893 23.1827 25.4557ZM70.5712 15.9164C70.4472 16.0253 70.2448 16.212 69.7938 16.0095C69.016 15.6986 68.9541 14.237 68.55 12.8993C68.1863 11.6978 67.3112 11.7732 66.9949 12.3239L66.0462 13.8479C65.875 14.1588 65.5021 14.8743 65.1284 14.8743C64.6932 14.8743 64.8879 14.252 64.9114 13.6301C64.9264 13.2102 64.662 12.6818 64.2267 12.6818C63.7291 12.6818 63.2008 13.4434 62.7963 14.3147C62.5138 14.9239 61.7853 17.2537 60.8675 17.2537C60.2768 17.2537 60.2144 15.5431 60.1836 15.0143C60.1529 14.4856 59.9658 13.8325 59.4374 13.8325C59.0795 13.8325 58.8467 14.0188 58.6597 14.2366C58.4734 14.4544 58.4426 14.6407 57.7892 14.5475C56.8871 14.5164 55.3943 15.3565 54.3368 17.129C53.7003 18.1962 52.9341 20.434 53.9016 21.2345C54.8036 21.9807 56.4203 20.2389 56.8871 19.6793C57.3532 19.1194 57.7576 18.7149 57.9447 18.4044C58.1309 18.093 58.3176 18.1242 58.4107 18.4355C58.5038 18.7465 59.033 19.9595 59.7172 19.9283C60.4018 19.8971 60.961 19.7417 61.9878 17.9376C62.174 17.5647 62.5161 17.5181 62.5785 17.829C62.6408 18.14 62.7032 18.9643 63.3562 18.9643C64.4753 18.9643 65.7441 16.24 66.062 15.6051C66.3418 15.0451 66.7924 15.2006 66.9483 15.6205C67.1707 16.2216 67.3678 18.1554 68.5808 18.1554C69.7938 18.1554 70.6177 16.8646 70.8663 16.4602C71.1469 16.0565 71.001 15.5404 70.5712 15.9164ZM57.3843 17.7825C57.1046 18.2489 56.4823 19.2752 55.8292 19.0574C55.4871 18.8708 55.912 17.9691 56.1405 17.5335C56.4827 16.8804 57.4852 15.8252 57.9447 16.0873C58.3795 16.3363 57.6641 17.3157 57.3843 17.7825ZM51.3759 16.1523C51.3759 16.1523 48.7324 14.2239 47.9859 13.3534C47.4844 12.7684 47.8304 12.327 48.1413 12.0784C50.007 10.8342 52.9306 8.90583 54.0817 5.92026C55.1904 3.04246 53.4594 0.53986 52.2152 0.135397C50.5104 -0.418383 46.8968 0.695335 45.0927 4.05419C43.9247 6.22967 43.3828 6.94662 43.227 12.8558C43.1969 13.9749 43.1646 15.2506 43.1646 16.6503C43.1646 18.0499 43.0091 21.844 42.8533 22.5591C42.2626 24.2385 44.0355 23.2433 44.8437 22.5906C45.6526 21.9372 45.5899 20.9578 45.5899 20.5379C45.5899 20.0087 45.6214 10.6788 45.9012 8.59488C46.0755 7.29875 46.2749 4.8939 47.6426 2.81001C49.0114 0.726122 50.4107 1.56622 50.7844 1.90796C51.1573 2.25008 51.6864 3.12096 51.4059 4.8939C50.9714 7.6451 47.7981 10.6476 46.9891 11.5804C46.181 12.5133 46.3676 13.3222 46.8344 13.9753C47.1658 14.4398 47.9851 15.3438 48.8248 16.1835C49.6645 17.0232 49.571 17.7698 49.4471 18.3297C49.0111 20.0087 44.4704 24.5498 44.4704 24.5498C43.506 25.5762 44.5012 27.2556 44.8433 27.8152C45.1862 28.3751 45.621 28.1888 45.9008 27.722C47.0207 25.6385 51.8411 20.5999 51.8411 20.5999C53.2423 18.8269 52.6508 17.1163 51.3759 16.1523Z" fill="url(#paint2_linear_201_467)" fill-opacity="0.8"/>
<defs>
<linearGradient id="paint0_linear_201_467" x1="69.2412" y1="8.99463" x2="71.9999" y2="8.99463" gradientUnits="userSpaceOnUse">
<stop stop-color="#6366F1"/>
<stop offset="1" stop-color="#818CF8"/>
</linearGradient>
<linearGradient id="paint1_linear_201_467" x1="0" y1="21.0808" x2="71.3299" y2="21.0808" gradientUnits="userSpaceOnUse">
<stop stop-color="#6366F1"/>
<stop offset="1" stop-color="#818CF8"/>
</linearGradient>
<linearGradient id="paint2_linear_201_467" x1="19.1946" y1="17.7975" x2="71.0103" y2="17.7975" gradientUnits="userSpaceOnUse">
<stop stop-color="#6366F1"/>
<stop offset="1" stop-color="#818CF8"/>
</linearGradient>
</defs>
</svg>
