<svg width="57" height="18" viewBox="0 0 57 18" fill="none" xmlns="http://www.w3.org/2000/svg">
<path fill-rule="evenodd" clip-rule="evenodd" d="M34.505 3.82211C35.6684 3.64443 36.2897 4.03449 36.624 4.70697C36.7543 4.97026 36.9608 5.21765 37.0192 5.55C37.135 6.21535 36.6677 7.03503 35.9314 7.57198C35.3588 7.98993 34.6117 8.20166 33.9269 8.26553C33.1442 8.33817 32.4578 8.40496 31.9921 8.30963C31.5265 8.21463 31.2827 7.95685 31.0275 7.38035C30.783 6.82849 31.1378 6.04674 31.8064 5.35837C32.2934 4.85644 32.9759 4.40348 33.5764 4.12722C33.8718 3.99104 34.2268 3.86459 34.505 3.82211ZM1.65988 2.61949C0.515949 2.62468 -0.0226184 2.09195 0.000727053 1.58094C0.0652514 0.177944 1.87258 0.298562 2.86476 0.243441C11.5269 -0.239356 22.3479 0.0518148 29.1579 0.628643C30.3965 0.733373 32.9526 1.01676 32.9166 2.76281C32.9033 3.38665 32.4403 4.08929 31.5006 4.492C26.7274 6.53537 20.6586 8.07585 15.8682 9.25221C19.5312 10.4697 23.2152 11.6464 26.885 12.8494C27.1707 12.9431 27.4725 13.0326 27.7848 13.1227C28.658 12.327 29.5401 11.5412 30.4309 10.7654C31.4416 9.88772 32.3144 9.13872 33.2807 8.79405C34.4275 8.38518 35.9437 8.85501 37.1855 10.3942C38.4465 11.9998 39.5982 13.0958 41.5427 11.6425C43.0063 10.2745 45.3863 8.01068 47.1764 7.09145C47.6356 6.8434 48.4442 6.70657 48.9008 6.91604C49.8381 7.34533 49.8271 7.61899 50.9659 7.37905C52.8163 6.98867 55.4482 7.03147 56.514 9.03983C57.035 10.0216 57.1453 11.2041 56.7364 12.2326C55.931 14.2572 53.2994 16.7023 50.1611 17.1806C47.631 17.5661 44.7952 17.2059 43.4476 14.6427C43.233 14.2342 43.0702 14.3101 42.6536 14.6106C40.4319 16.2134 38.0451 16.5898 35.3746 14.7695C34.1912 13.9631 33.2405 13.0199 32.4312 12.9071L31.0311 14.2177C31.9228 14.6353 32.7087 15.182 33.2243 15.966C33.8899 16.9786 33.7453 17.9383 32.4257 17.7681C31.6763 17.6715 30.6961 17.3064 30.2192 17.1712C23.1786 15.1764 16.2939 13.2164 9.31428 11.1516C9.00138 12.4184 8.4894 13.7297 7.81141 14.8438C6.69764 16.6744 5.22428 16.4193 4.7859 14.9106C3.748 11.3358 4.25771 5.16415 4.95613 3.03193C5.05729 2.72228 5.08745 2.77545 5.40715 2.76346C7.16956 2.69731 8.9333 2.67364 10.6968 2.69245C11.1022 2.69666 11.014 2.78615 10.9361 3.17816C10.692 4.41256 10.4277 5.73936 10.0701 7.00715C13.4432 6.35574 18.1064 4.78122 22.9221 3.61524C23.6134 3.45215 23.6072 3.12661 23.2908 3.06208C19.5367 2.82895 15.6487 2.67656 11.6556 2.57767C9.14924 2.45899 6.6383 2.56081 4.13223 2.64251C3.32227 2.66878 2.6125 2.65581 1.65988 2.61949ZM49.5671 11.0265C50.2097 10.7466 50.8439 10.6192 51.3524 10.6776C52.0154 10.7534 52.3458 11.1344 52.4175 11.7113C52.4785 12.2005 52.3669 12.6509 51.9104 13.0436C51.6711 13.2491 51.3112 13.4395 50.8851 13.611C50.3436 13.8451 49.6261 13.9492 49.1378 13.8921C48.678 13.8389 48.4361 13.6434 48.2442 13.2806C48.0289 12.8348 48.1352 12.2511 48.607 11.7271C48.8375 11.4716 49.1816 11.2431 49.5671 11.0265Z" fill="url(#paint0_linear_201_399)" fill-opacity="0.8"/>
<defs>
<linearGradient id="paint0_linear_201_399" x1="0" y1="8.89392" x2="56.985" y2="8.89392" gradientUnits="userSpaceOnUse">
<stop stop-color="#6366F1"/>
<stop offset="1" stop-color="#818CF8"/>
</linearGradient>
</defs>
</svg>
