<svg width="88" height="30" viewBox="0 0 88 30" fill="none" xmlns="http://www.w3.org/2000/svg">
<path fill-rule="evenodd" clip-rule="evenodd" d="M41.8336 2.15472C66.1048 -2.04774 86.7491 0.0846556 87.9456 6.91774C88.5522 10.3796 84.0448 14.3824 76.3031 18.0383C76.5232 17.7179 76.6634 17.343 76.7037 16.9002C76.7327 16.5863 76.7353 16.4603 76.7362 16.2899V13.7853H73.3915V15.1932H74.3374V16.5004C74.3382 16.5955 74.3356 16.7315 74.315 16.8457C74.3041 16.9119 74.1831 17.4934 73.4016 17.4934C72.6144 17.4934 72.493 16.9119 72.4812 16.8457C72.4663 16.7615 72.4588 16.6469 72.461 16.5004V12.2814C72.461 12.1114 72.4728 11.958 72.4978 11.8512C72.5417 11.6568 72.717 11.2043 73.3933 11.2043C74.0779 11.2043 74.2449 11.6559 74.2843 11.8508C74.3106 11.9785 74.3141 12.1829 74.3141 12.1947V12.7417H76.7178V12.3751L76.7178 12.3639C76.7184 12.27 76.7198 12.0253 76.6958 11.7954C76.5083 9.88618 74.802 9.48908 73.4104 9.48908C71.612 9.48908 70.3147 10.1621 70.1179 11.7941C70.099 11.9458 70.0793 12.2396 70.0793 12.407L70.0784 16.289C70.0793 16.4643 70.0841 16.5928 70.1113 16.9002C70.2651 18.5888 71.7483 19.2078 73.4095 19.2078C73.4809 19.2078 73.5493 19.203 73.6175 19.1982L73.6176 19.1982L73.6177 19.1982L73.6177 19.1982C73.6542 19.1956 73.6905 19.193 73.7272 19.1912C66.4274 22.2896 56.8357 25.0544 46.1666 26.9013C21.8959 31.1038 1.25205 28.9736 0.0541839 22.1396C-0.56031 18.6267 4.09047 14.5581 12.0408 10.8604C11.9393 11.0689 11.8682 11.2906 11.8295 11.519C11.7541 11.9798 11.7616 12.3442 11.8523 12.7722C12.0858 13.8669 13.2755 14.5142 14.3346 15.0903C15.118 15.5165 15.8299 15.9038 16.0306 16.4045C16.1143 16.6129 16.0941 16.8853 16.0481 17.0702C15.9491 17.472 15.6624 17.6686 15.1715 17.6686C14.6535 17.6686 14.273 17.3814 14.273 16.8609L14.2717 15.9351H11.7204L11.7186 16.6783C11.7186 18.2492 12.7013 19.3887 15.1202 19.3887C16.8533 19.3887 18.2146 18.7941 18.4351 17.2532C18.5429 16.5004 18.4745 15.9743 18.4241 15.7285C18.2015 14.6217 16.9218 13.9403 15.835 13.3616C15.0458 12.9414 14.3582 12.5753 14.2511 12.1398C14.2149 11.9846 14.2116 11.8237 14.2415 11.6672C14.3304 11.2715 14.6061 11.0705 15.0536 11.0705C15.5862 11.0705 15.8868 11.3796 15.8868 11.8782V12.4767H18.2668V11.7989C18.2668 11.1385 18.0709 10.6085 17.683 10.2223C17.1868 9.73013 16.3703 9.47905 15.2693 9.45508C22.4367 6.525 31.6406 3.92053 41.8336 2.15472ZM23.792 10.7997L25.0096 19.0276H27.5618L25.8463 9.73564H21.6592L19.9332 19.0276H22.4994L23.7481 10.7997H23.792ZM37.3548 19.0276L37.2983 10.9588H37.2571L35.7472 19.0276H33.3387L31.8362 10.9588H31.7933L31.7385 19.0276H29.352L29.5588 9.73564H33.3974L34.5151 16.638H34.5699L35.6906 9.73564H39.5275L39.7335 19.0276H37.3548ZM45.3092 19.3423C46.5623 19.3423 48.3352 19.0276 48.5921 17.2278C48.6986 16.478 48.6307 15.9597 48.5811 15.7183C48.3593 14.6233 47.0933 13.951 46.0168 13.3792C45.2325 12.9627 44.5487 12.5996 44.4423 12.1653C44.4058 12.012 44.4019 11.8528 44.4309 11.698C44.5203 11.3061 44.7929 11.1069 45.2435 11.1069C45.7515 11.1069 46.0675 11.3998 46.0675 11.9064V12.4979H48.4247V11.8275C48.4247 11.1741 48.2301 10.6488 47.8457 10.2661C47.3302 9.75347 46.4707 9.49717 45.29 9.49717C43.9698 9.49717 42.3297 9.85024 42.0527 11.5498C41.9777 12.0057 41.9843 12.3667 42.0755 12.7917C42.3045 13.8706 43.4861 14.5161 44.5366 15.09C45.3114 15.5134 46.0149 15.8977 46.2121 16.3882C46.2928 16.5922 46.2739 16.8625 46.2283 17.0477C46.1297 17.4453 45.8457 17.6388 45.361 17.6388C44.8175 17.6388 44.4655 17.335 44.4655 16.8385L44.4638 15.924H41.9431L41.9418 16.658C41.9418 18.4578 43.2286 19.3423 45.3092 19.3423ZM57.3221 16.3837C57.3256 16.5581 57.3085 16.9063 57.2988 16.9957C57.1551 18.5266 56.0541 19.3046 54.0348 19.3046C52.0077 19.3046 50.9058 18.5266 50.7629 16.9957C50.7467 16.7927 50.739 16.5891 50.7397 16.3854V9.73457H53.1512V16.5951C53.1486 16.7485 53.1565 16.8619 53.1718 16.9408C53.2016 17.0933 53.3541 17.5885 54.0348 17.5885C54.7133 17.5885 54.8658 17.0929 54.8978 16.9425C54.9114 16.8614 54.9197 16.7424 54.9197 16.5947V9.73457H57.3221V16.3837ZM64.3573 18.933H67.7129V9.73564H65.357L65.4802 16.8059H65.4315L63.3496 9.73564H59.8533V18.933H62.1921L62.0672 11.5729H62.1049L64.3573 18.933Z" fill="url(#paint0_linear_201_386)" fill-opacity="0.8"/>
<defs>
<linearGradient id="paint0_linear_201_386" x1="0" y1="14.5283" x2="88" y2="14.5283" gradientUnits="userSpaceOnUse">
<stop stop-color="#6366F1"/>
<stop offset="1" stop-color="#818CF8"/>
</linearGradient>
</defs>
</svg>
