<svg width="20" height="20" viewBox="0 0 20 20" fill="none" xmlns="http://www.w3.org/2000/svg">
<path d="M8.75463 7.958V10.706C8.40854 10.6147 8.04638 10.6023 7.69484 10.6696C7.34331 10.7369 7.01136 10.8822 6.72346 11.0949C6.43556 11.3076 6.19906 11.5821 6.03138 11.8983C5.86371 12.2146 5.76913 12.5644 5.75463 12.922C5.73428 13.2303 5.78023 13.5395 5.88938 13.8285C5.99854 14.1176 6.16837 14.38 6.38745 14.5979C6.60652 14.8158 6.86974 14.9843 7.15939 15.092C7.44904 15.1996 7.7584 15.244 8.06663 15.222C8.37744 15.2456 8.68968 15.2015 8.9818 15.0928C9.27392 14.984 9.53897 14.8132 9.75866 14.5921C9.97836 14.371 10.1475 14.1048 10.2543 13.812C10.3612 13.5192 10.4033 13.2067 10.3776 12.896V2H13.0966C13.5596 4.876 14.9966 5.544 16.9236 5.852V8.608C15.5889 8.49893 14.3013 8.06424 13.1736 7.342V12.787C13.1716 15.25 11.7116 18 8.08663 18C7.40669 17.9969 6.7342 17.8581 6.10858 17.5918C5.48295 17.3255 4.91677 16.937 4.44319 16.4491C3.96962 15.9612 3.59819 15.3836 3.35065 14.7503C3.10312 14.1171 2.98446 13.4407 3.00163 12.761C3.02301 12.0531 3.19421 11.3579 3.50395 10.721C3.81369 10.0842 4.25491 9.52023 4.79854 9.06637C5.34216 8.61252 5.97583 8.27907 6.65775 8.08802C7.33966 7.89697 8.05434 7.85265 8.75463 7.958Z" fill="#6366F1" fill-opacity="0.88"/>
</svg>
