<svg width="1302" height="1312" viewBox="0 0 1302 1312" fill="none" xmlns="http://www.w3.org/2000/svg">
<g filter="url(#filter0_f_201_5)">
<path fill-rule="evenodd" clip-rule="evenodd" d="M348 19L922 405.9L595.816 501L348 19Z" fill="url(#paint0_linear_201_5)"/>
</g>
<g filter="url(#filter1_f_201_5)">
<path fill-rule="evenodd" clip-rule="evenodd" d="M569 -42L1143 344.9L816.816 440L569 -42Z" fill="url(#paint1_linear_201_5)"/>
</g>
<g style="mix-blend-mode:overlay">
<path fill-rule="evenodd" clip-rule="evenodd" d="M968.652 131.95C840.946 239.436 669.732 298.518 486.158 298.518C484.916 298.518 483.671 298.515 482.426 298.509C401.982 298.158 323.968 286.482 251 264.423V270.576C324.028 292.455 402.006 304.068 482.399 304.416C482.761 304.417 483.121 304.418 483.479 304.419L483.828 304.42C484.025 304.42 484.222 304.421 484.419 304.421C484.996 304.422 485.574 304.422 486.158 304.422C671.223 304.422 843.916 244.812 972.744 136.381C1116.26 15.5878 1193.94 -156.595 1198.22 -362H1192.03C1187.76 -158.341 1110.8 12.3058 968.652 131.95ZM485.987 -36.3177C484.817 -36.3177 483.62 -36.3238 482.447 -36.3327C395.031 -37.0827 313.447 -64.3854 251 -113.441V-105.866C314.014 -57.8605 395.37 -31.1698 482.393 -30.4228C483.647 -30.4108 484.901 -30.4048 486.155 -30.4048C579.496 -30.4048 666.645 -60.3535 731.904 -114.941C803.588 -174.898 843.325 -260.142 847.495 -361.997H841.282C832.112 -137.954 652.995 -36.3177 485.987 -36.3177ZM485.99 -16.6199C484.817 -16.6199 483.632 -16.6259 482.456 -16.6349C396.129 -17.3369 315.163 -42.5127 251 -88.0401V-80.7382C315.616 -36.0927 396.402 -11.424 482.408 -10.728C483.659 -10.716 484.904 -10.713 486.155 -10.713C584.896 -10.713 677.082 -42.4106 746.078 -100.166C821.984 -163.696 863.95 -254.058 868.132 -361.997H861.919C852.718 -124.43 662.919 -16.6199 485.99 -16.6199ZM482.468 3.05981C483.635 3.06882 484.823 3.07483 485.99 3.07483C672.852 3.07483 873.331 -110.9 882.55 -361.997H888.763C884.569 -247.968 840.376 -152.497 760.256 -85.3882C687.516 -24.4619 590.293 8.98477 486.155 8.98477C484.907 8.98477 483.671 8.98175 482.423 8.96976C397.257 8.31577 316.906 -14.598 251 -56.3605V-63.5634C316.549 -21.0209 397.011 2.40582 482.468 3.05981ZM485.99 22.7696C484.823 22.7696 483.644 22.7636 482.477 22.7546C397.74 22.1396 317.686 0.206848 251 -39.7527V-32.7688C317.989 6.52478 397.932 28.0495 482.429 28.6645C483.677 28.6735 484.91 28.6795 486.155 28.6795C595.696 28.6795 697.95 -6.51309 774.431 -70.6134C858.772 -141.299 905.191 -241.881 909.397 -361.997H903.184C893.947 -97.3701 682.779 22.7696 485.99 22.7696ZM482.486 42.4523C483.644 42.4613 484.838 42.4644 485.996 42.4644C692.709 42.4644 914.562 -83.8372 923.814 -361.997H930.027C925.812 -235.794 877.165 -130.1 788.606 -55.8325C708.384 11.4357 601.096 48.3743 486.155 48.3743C484.913 48.3743 483.686 48.3713 482.441 48.3623C398.52 47.7803 318.892 27.5065 251 -9.60605V-16.392C318.631 21.2966 398.373 41.8734 482.486 42.4523ZM798.689 -45.4916C715.008 24.7136 602.575 62.8492 482.486 62.1501C398.904 61.5981 319.435 42.1854 251 6.50375V13.2927C319.645 48.4493 399.048 67.5081 482.444 68.0601C483.686 68.0691 484.913 68.0721 486.155 68.0721C606.493 68.0721 718.815 29.3875 802.775 -41.0517C895.564 -118.898 946.44 -229.705 950.661 -361.997H944.469C940.263 -231.463 890.11 -122.192 798.689 -45.4916ZM482.492 81.8449C607.972 82.5379 725.439 42.6654 812.861 -30.7108C908.503 -110.987 960.882 -225.373 965.097 -361.997H971.289C967.062 -223.618 913.956 -107.696 816.944 -26.2739C729.246 47.3363 611.884 87.7669 486.152 87.7669C484.913 87.7669 483.695 87.7639 482.45 87.7549C399.465 87.2329 320.314 69.065 251 35.6184V29.0005C320.125 62.9031 399.354 81.3229 482.492 81.8449ZM827.026 -15.927C735.87 60.6172 613.441 102.335 482.492 101.543C399.759 101.042 320.716 83.5849 251 51.2963V57.9172C320.869 89.7859 399.867 106.955 482.45 107.456L482.521 107.456C483.739 107.462 484.94 107.468 486.152 107.468C617.287 107.468 739.67 65.2911 831.112 -11.484C932.346 -96.4911 987.687 -217.525 991.923 -361.997H985.731C981.51 -219.283 926.895 -99.782 827.026 -15.927ZM486.152 121.253C621.187 121.253 747.14 77.858 841.192 -1.1431C945.288 -88.5771 1002.13 -213.19 1006.36 -361.997H1012.55C1008.31 -211.435 950.742 -85.2892 845.281 3.29684C750.104 83.243 622.687 127.162 486.155 127.162C484.951 127.162 483.754 127.156 482.55 127.15H482.544H482.537H482.531H482.524H482.517H482.51H482.503H482.496H482.488H482.48H482.473H482.465H482.456C400.182 126.673 321.385 110.195 251 79.724V73.2501C321.238 104.093 400.101 120.763 482.489 121.241C483.704 121.249 484.937 121.253 486.152 121.253ZM855.361 13.6407C756.725 96.5208 624.211 141.742 482.492 140.935C400.407 140.479 321.697 124.549 251 95.0268V101.501C321.817 130.678 400.488 146.389 482.456 146.848C483.698 146.854 484.916 146.857 486.155 146.857C628.078 146.857 760.535 101.189 859.45 18.0776C969.132 -74.0813 1028.94 -205.345 1033.18 -361.997H1026.99C1022.76 -207.097 963.681 -77.3693 855.361 13.6407ZM486.155 160.642C631.975 160.642 767.999 113.759 869.527 28.4276C982.071 -66.1644 1043.38 -201.004 1047.62 -361.997H1053.82C1049.56 -199.252 987.528 -62.8764 873.613 32.8615C770.957 119.141 633.469 166.552 486.152 166.552C484.933 166.552 483.734 166.546 482.509 166.54H482.508H482.507H482.505H482.504H482.502H482.501H482.499H482.497H482.495H482.493L482.45 166.54C400.752 166.102 322.207 151.06 251 123.061V116.714C322.09 145.018 400.698 160.192 482.489 160.633C483.71 160.639 484.937 160.642 486.155 160.642ZM883.693 43.2114C778.421 131.713 637.378 180.337 486.158 180.337C484.937 180.337 483.707 180.334 482.489 180.328C400.926 179.905 322.465 165.253 251 138.043V144.394C322.564 171.316 400.98 185.815 482.45 186.238L482.555 186.238C483.764 186.244 484.951 186.25 486.152 186.25C638.869 186.25 781.385 137.095 887.779 47.6483C1005.91 -51.6686 1070.18 -193.159 1074.44 -361.997H1068.25C1064.01 -194.914 1000.46 -54.9565 883.693 43.2114ZM486.155 200.035C642.766 200.035 788.843 149.665 897.853 58.0012C1018.85 -43.7486 1084.63 -188.818 1088.88 -361.997H1095.08C1090.82 -187.066 1024.31 -40.4637 901.945 62.4352C791.81 155.044 644.26 205.945 486.155 205.945C484.91 205.945 483.692 205.942 482.444 205.936C401.202 205.528 322.867 191.641 251 165.724V159.373C322.783 185.557 401.145 199.615 482.477 200.026C483.704 200.032 484.934 200.035 486.155 200.035ZM912.016 72.788C799.268 167.617 648.16 219.732 486.158 219.732C484.931 219.732 483.698 219.729 482.474 219.723C401.364 219.327 323.059 205.894 251 180.667V186.91C323.143 211.899 401.4 225.237 482.441 225.633C483.689 225.639 484.91 225.642 486.158 225.642C649.656 225.642 802.235 172.999 916.107 77.225C1042.7 -29.2528 1111.44 -180.973 1115.7 -361.997H1109.51C1105.26 -182.725 1037.24 -32.5378 912.016 72.788ZM482.459 239.421C651.181 240.219 808.832 186.295 926.175 87.5779C1055.63 -21.3269 1125.88 -176.629 1130.14 -361.997H1136.34C1132.06 -174.88 1061.09 -18.045 930.267 92.0118C812.654 190.954 655.053 245.337 486.155 245.337C484.91 245.337 483.677 245.334 482.429 245.328C401.556 244.944 323.41 231.996 251 207.858V201.616C323.335 225.978 401.52 239.037 482.459 239.421ZM940.338 102.368C820.112 203.527 658.95 259.122 486.158 259.122C485.512 259.122 484.864 259.121 484.217 259.12L483.304 259.118L482.521 259.116L482.456 259.116C401.679 258.744 323.578 246.111 251 222.561V228.804C323.641 252.141 401.715 264.654 482.423 265.023C483.677 265.029 484.904 265.032 486.158 265.032C660.441 265.032 823.076 208.906 944.424 106.802C1079.48 -6.83405 1152.69 -168.784 1156.96 -361.997H1150.77C1146.51 -170.536 1074.02 -10.119 940.338 102.368ZM482.435 278.811C661.929 279.525 829.664 222.204 954.492 117.158C1092.41 1.09485 1167.13 -164.44 1171.4 -361.997H1177.59C1173.32 -162.691 1097.87 4.37683 958.584 121.589C833.497 226.857 665.829 284.727 486.155 284.727C484.895 284.727 483.671 284.727 482.408 284.721C401.868 284.361 323.839 272.331 251 249.75V243.504C323.785 266.286 401.832 278.451 482.435 278.811ZM486.158 318.212C675.129 318.212 851.362 257.394 982.809 146.743C1129.19 23.5196 1208.39 -152.248 1212.66 -361.997H1218.85C1214.57 -150.496 1134.65 26.8046 986.901 151.174C854.332 262.77 676.62 324.122 486.158 324.122C484.895 324.122 483.647 324.119 482.381 324.113C402.108 323.774 324.214 312.428 251 291.201V285.045C324.163 306.446 402.087 317.864 482.411 318.206C483.656 318.209 484.916 318.212 486.158 318.212ZM996.963 161.536C861.781 275.346 680.508 337.907 486.158 337.907C484.907 337.907 483.647 337.904 482.393 337.901C402.189 337.568 324.334 326.441 251 305.666V311.822C324.379 332.435 402.21 343.478 482.366 343.811C483.632 343.817 484.895 343.82 486.158 343.82C682.017 343.82 864.742 280.734 1001.05 165.97C1153.03 38.0184 1235.19 -144.401 1239.48 -361.997H1233.29C1229.01 -146.15 1147.57 34.7335 996.963 161.536ZM486.158 357.605C685.911 357.605 872.191 293.307 1011.12 176.332C1165.96 45.9504 1249.63 -140.051 1253.92 -361.997H1260.11C1255.82 -138.302 1171.42 49.2323 1015.21 180.766C875.158 298.686 687.402 363.515 486.158 363.515C484.886 363.515 483.623 363.512 482.348 363.506C402.309 363.179 324.523 352.469 251 332.441V326.285C324.484 346.466 402.288 357.272 482.375 357.599C483.626 357.602 484.907 357.605 486.158 357.605ZM1025.27 191.128C882.607 311.261 691.296 377.3 486.158 377.3C484.898 377.3 483.614 377.297 482.354 377.294C402.387 376.976 324.616 366.524 251 346.907V353.063C324.652 372.536 402.411 382.885 482.33 383.203C483.611 383.21 484.877 383.21 486.158 383.21C692.79 383.21 885.577 316.64 1029.36 195.559C1189.81 60.4492 1276.45 -132.203 1280.74 -361.997H1274.55C1270.27 -133.952 1184.35 57.1672 1025.27 191.128ZM486.161 396.994C696.687 396.994 893.02 329.219 1039.42 205.924C1202.74 68.3841 1290.89 -127.85 1295.18 -361.997H1301.37C1297.08 -126.107 1208.2 71.666 1043.51 210.354C895.99 334.595 698.178 402.904 486.161 402.904C484.868 402.904 483.599 402.904 482.306 402.898C402.507 402.586 324.763 392.62 251 373.679V367.523C324.733 386.605 402.486 396.676 482.333 396.988C483.602 396.991 484.895 396.994 486.161 396.994Z" fill="url(#paint2_linear_201_5)" fill-opacity="0.64"/>
</g>
<defs>
<filter id="filter0_f_201_5" x="255.578" y="-73.4216" width="758.843" height="666.843" filterUnits="userSpaceOnUse" color-interpolation-filters="sRGB">
<feFlood flood-opacity="0" result="BackgroundImageFix"/>
<feBlend mode="normal" in="SourceGraphic" in2="BackgroundImageFix" result="shape"/>
<feGaussianBlur stdDeviation="46.2108" result="effect1_foregroundBlur_201_5"/>
</filter>
<filter id="filter1_f_201_5" x="476.578" y="-134.422" width="758.843" height="666.843" filterUnits="userSpaceOnUse" color-interpolation-filters="sRGB">
<feFlood flood-opacity="0" result="BackgroundImageFix"/>
<feBlend mode="normal" in="SourceGraphic" in2="BackgroundImageFix" result="shape"/>
<feGaussianBlur stdDeviation="46.2108" result="effect1_foregroundBlur_201_5"/>
</filter>
<linearGradient id="paint0_linear_201_5" x1="235.707" y1="177.657" x2="401.25" y2="525.961" gradientUnits="userSpaceOnUse">
<stop stop-color="#374151" stop-opacity="0.8"/>
<stop offset="0.382416" stop-color="#374151" stop-opacity="0.16"/>
<stop offset="1" stop-color="#374151" stop-opacity="0"/>
</linearGradient>
<linearGradient id="paint1_linear_201_5" x1="456.707" y1="116.657" x2="622.25" y2="464.961" gradientUnits="userSpaceOnUse">
<stop stop-color="#6366F1" stop-opacity="0.8"/>
<stop offset="0.382416" stop-color="#6366F1" stop-opacity="0.32"/>
<stop offset="1" stop-color="#6366F1" stop-opacity="0"/>
</linearGradient>
<linearGradient id="paint2_linear_201_5" x1="888" y1="-95" x2="815" y2="275" gradientUnits="userSpaceOnUse">
<stop stop-color="#6366F1"/>
<stop offset="0.43" stop-color="white" stop-opacity="0.57"/>
<stop offset="1" stop-color="#6366F1" stop-opacity="0"/>
</linearGradient>
</defs>
</svg>
